<svg width="241" height="103" viewBox="0 0 241 103" fill="none" xmlns="http://www.w3.org/2000/svg">
<path d="M80.792 54.5918L62.7193 33.7808L52.8614 59.2469L69.8388 78.6888L45.1942 78.9626L36.4316 102.512H62.1716L80.792 54.5918Z" fill="black"/>
<path d="M0.833984 102.786L40.2654 0.373535L66.0054 0.373535L26.3001 102.786H0.833984Z" fill="black"/>
<path d="M110.549 53.1554C115.237 53.1554 118.83 54.9518 121.327 58.5444C123.868 62.0932 124.745 66.2554 123.956 71.031C123.211 75.6752 121.174 79.6402 117.844 82.9262C114.514 86.2121 110.418 87.8551 105.555 87.8551C100.823 87.8551 97.4055 86.0588 95.3025 82.4662L94.5138 86.9351H86.0361L94.1195 40.9317H102.597L99.6399 57.6243C102.619 54.6451 106.256 53.1554 110.549 53.1554ZM115.478 70.4396C115.96 67.6794 115.5 65.4668 114.098 63.8019C112.74 62.0932 110.746 61.2389 108.118 61.2389C105.489 61.2389 103.167 62.0932 101.151 63.8019C99.1361 65.5106 97.8874 67.7451 97.4055 70.5053C96.9235 73.2655 97.4055 75.4999 98.8513 77.2086C100.297 78.9173 102.334 79.7717 104.963 79.7717C107.592 79.7717 109.892 78.9173 111.864 77.2086C113.835 75.4561 115.04 73.1998 115.478 70.4396ZM151.228 54.0755H159.706L153.922 86.9351H145.445L146.102 83.3862C143.517 86.3655 140.121 87.8551 135.915 87.8551C132.235 87.8551 129.387 86.6284 127.372 84.1749C125.356 81.7213 124.721 78.4135 125.466 74.2513L129.015 54.0755H137.493L134.141 73.1998C133.747 75.4342 134.031 77.121 134.995 78.2601C136.003 79.3993 137.493 79.9688 139.464 79.9688C141.48 79.9688 143.232 79.3774 144.722 78.1944C146.255 77.0115 147.329 75.2371 147.942 72.8712L151.228 54.0755ZM174.702 87.8551C169.62 87.8551 165.633 86.1245 162.742 82.6633C159.894 79.1583 158.886 74.8866 159.718 69.8481C160.463 65.0287 162.676 61.0417 166.356 57.8872C170.08 54.7327 174.418 53.1554 179.369 53.1554C182.742 53.1554 185.634 53.9441 188.043 55.5213C190.453 57.0548 192.184 59.114 193.235 61.6989L185.546 65.7735C184.363 62.9257 182.063 61.5018 178.646 61.5018C176.104 61.5018 173.826 62.3342 171.811 63.9991C169.839 65.6202 168.634 67.7232 168.196 70.3081C167.758 72.9369 168.218 75.1275 169.576 76.88C170.935 78.5887 172.884 79.4431 175.425 79.4431C178.843 79.4431 181.559 77.9754 183.575 75.0399L190.409 79.4431C188.744 82.1595 186.51 84.2406 183.706 85.6864C180.946 87.1322 177.945 87.8551 174.702 87.8551ZM190.161 86.9351L193.776 66.2993L198.573 38.9601H207.051L202.188 66.6279L198.639 86.9351H190.161ZM237.416 40.6688L228.807 49.6723H220.461L227.033 40.6688H237.416ZM211.129 57.9529C214.853 54.7546 219.147 53.1554 224.01 53.1554C228.873 53.1554 232.707 54.8422 235.511 58.2158C238.315 61.5456 239.257 65.6421 238.337 70.5053C238.249 71.4692 237.942 72.6302 237.416 73.9884H212.575C212.75 76.0914 213.56 77.6468 215.006 78.6545C216.452 79.6621 218.27 80.166 220.461 80.166C223.747 80.166 226.441 79.0488 228.544 76.8143L234.525 81.6118C230.845 85.774 225.938 87.8551 219.804 87.8551C214.371 87.8551 210.231 86.1245 207.383 82.6633C204.579 79.2021 203.593 74.9304 204.425 69.8481C205.17 65.0725 207.405 61.1075 211.129 57.9529ZM213.758 67.3508H230.45C230.406 65.1163 229.727 63.4733 228.413 62.4218C227.142 61.3265 225.499 60.7789 223.484 60.7789C221.293 60.7789 219.344 61.3484 217.635 62.4876C215.97 63.6267 214.678 65.2478 213.758 67.3508Z" fill="black"/>
</svg>
