<svg width="183" height="175" viewBox="0 0 183 175" fill="none" xmlns="http://www.w3.org/2000/svg">
<path d="M138.448 63.6691L117.225 39.2305L105.649 69.1357L125.585 91.9665L96.6449 92.2881L86.355 119.942H116.582L138.448 63.6691Z" fill="black"/>
<path d="M44.5522 120.264L90.8571 0L121.084 0L74.4575 120.264H44.5522Z" fill="black"/>
<path d="M29.9438 133.31C35.4489 133.31 39.6678 135.419 42.6004 139.638C45.5845 143.806 46.6135 148.693 45.6874 154.301C44.8128 159.755 42.4204 164.411 38.5102 168.27C34.6 172.129 29.7894 174.058 24.0785 174.058C18.5219 174.058 14.5088 171.949 12.0393 167.73L11.1132 172.978H1.15762L10.6501 118.955H20.6057L17.1328 138.558C20.6314 135.059 24.9017 133.31 29.9438 133.31ZM35.7319 153.607C36.2978 150.365 35.7576 147.767 34.1112 145.812C32.5163 143.806 30.1753 142.802 27.0883 142.802C24.0013 142.802 21.2745 143.806 18.9078 145.812C16.5411 147.819 15.0748 150.443 14.5088 153.684C13.9429 156.925 14.5088 159.549 16.2067 161.556C17.9045 163.562 20.297 164.566 23.3839 164.566C26.4709 164.566 29.172 163.562 31.4873 161.556C33.8025 159.498 35.2174 156.848 35.7319 153.607Z" fill="#F9D949"/>
<path d="M77.7131 134.39H87.6687L80.8773 172.978H70.9218L71.6935 168.81C68.658 172.309 64.6706 174.058 59.7314 174.058C55.4096 174.058 52.0654 172.618 49.6987 169.736C47.332 166.855 46.586 162.971 47.4606 158.083L51.6281 134.39H61.5836L57.6477 156.848C57.1847 159.472 57.5191 161.453 58.651 162.791C59.8343 164.128 61.5836 164.797 63.8989 164.797C66.2656 164.797 68.3235 164.103 70.0728 162.713C71.8736 161.324 73.1341 159.241 73.8544 156.462L77.7131 134.39Z" fill="#F45050"/>
<path d="M105.28 174.058C99.3114 174.058 94.6295 172.026 91.2338 167.961C87.8896 163.845 86.7062 158.829 87.6838 152.912C88.5584 147.253 91.1566 142.571 95.4784 138.866C99.8516 135.162 104.945 133.31 110.759 133.31C114.721 133.31 118.116 134.236 120.946 136.088C123.776 137.889 125.808 140.307 127.043 143.343L118.013 148.127C116.624 144.783 113.923 143.111 109.91 143.111C106.926 143.111 104.251 144.089 101.884 146.044C99.5687 147.947 98.1538 150.417 97.6393 153.452C97.1248 156.539 97.665 159.112 99.26 161.17C100.855 163.176 103.144 164.18 106.129 164.18C110.142 164.18 113.331 162.456 115.698 159.009L123.724 164.18C121.769 167.37 119.145 169.813 115.853 171.511C112.611 173.209 109.087 174.058 105.28 174.058Z" fill="#E97210"/>
<path d="M123.433 172.978L127.678 148.745L133.311 116.64H143.267L137.556 149.131L133.389 172.978H123.433Z" fill="#5B24B2"/>
<path d="M178.925 118.647L168.815 129.22H159.014L166.732 118.647H178.925ZM148.055 138.944C152.429 135.188 157.471 133.31 163.182 133.31C168.893 133.31 173.395 135.291 176.687 139.252C179.98 143.162 181.086 147.973 180.006 153.684C179.903 154.816 179.543 156.179 178.925 157.774H149.753C149.959 160.244 150.911 162.07 152.609 163.254C154.307 164.437 156.442 165.029 159.014 165.029C162.873 165.029 166.037 163.717 168.507 161.093L175.53 166.727C171.208 171.614 165.446 174.058 158.243 174.058C151.863 174.058 147.001 172.026 143.657 167.961C140.364 163.897 139.206 158.88 140.184 152.912C141.058 147.304 143.682 142.648 148.055 138.944ZM151.142 149.98H170.745C170.693 147.356 169.896 145.426 168.352 144.191C166.86 142.905 164.931 142.262 162.564 142.262C159.992 142.262 157.702 142.931 155.696 144.269C153.741 145.606 152.223 147.51 151.142 149.98Z" fill="#12CDCD"/>
</svg>
