<svg width="157" height="149" viewBox="0 0 157 149" fill="none" xmlns="http://www.w3.org/2000/svg">
<path d="M118.122 54.6167L100.049 33.8057L90.1915 59.2718L107.169 78.7137L82.5243 78.9875L73.7617 102.537H99.5017L118.122 54.6167Z" fill="white"/>
<path d="M38.1641 102.811L77.5955 0.398438L103.336 0.398438L63.6302 102.811H38.1641Z" fill="white"/>
<path d="M25.6421 113.936C30.33 113.936 33.9227 115.732 36.42 119.325C38.9612 122.874 39.8374 127.036 39.0488 131.811C38.304 136.455 36.2667 140.421 32.9369 143.706C29.6071 146.992 25.5106 148.635 20.6474 148.635C15.9157 148.635 12.4983 146.839 10.3952 143.246L9.60662 147.715H1.12885L9.2123 101.712H17.6901L14.7327 118.405C17.712 115.425 21.3484 113.936 25.6421 113.936ZM30.571 131.22C31.053 128.46 30.5929 126.247 29.1909 124.582C27.8327 122.874 25.8392 122.019 23.2105 122.019C20.5817 122.019 18.2596 122.874 16.2442 124.582C14.2289 126.291 12.9802 128.525 12.4983 131.286C12.0163 134.046 12.4983 136.28 13.9441 137.989C15.3899 139.698 17.4272 140.552 20.056 140.552C22.6847 140.552 24.9849 139.698 26.9565 137.989C28.928 136.236 30.1329 133.98 30.571 131.22ZM66.3207 114.856H74.7984L69.0151 147.715H60.5374L61.1946 144.167C58.6096 147.146 55.2141 148.635 51.0081 148.635C47.3278 148.635 44.48 147.409 42.4646 144.955C40.4492 142.502 39.814 139.194 40.5588 135.032L44.1076 114.856H52.5854L49.2337 133.98C48.8394 136.214 49.1242 137.901 50.088 139.04C51.0957 140.18 52.5854 140.749 54.5569 140.749C56.5723 140.749 58.3248 140.158 59.8145 138.975C61.3479 137.792 62.4213 136.017 63.0347 133.651L66.3207 114.856ZM89.7952 148.635C84.7129 148.635 80.726 146.905 77.8343 143.444C74.9865 139.939 73.9788 135.667 74.8113 130.628C75.5561 125.809 77.7686 121.822 81.4489 118.667C85.173 115.513 89.5104 113.936 94.4613 113.936C97.8349 113.936 100.726 114.724 103.136 116.302C105.546 117.835 107.276 119.894 108.328 122.479L100.639 126.554C99.4559 123.706 97.1558 122.282 93.7384 122.282C91.1972 122.282 88.919 123.114 86.9036 124.779C84.932 126.4 83.7272 128.503 83.289 131.088C82.8509 133.717 83.3109 135.908 84.6691 137.66C86.0273 139.369 87.977 140.223 90.5181 140.223C93.9355 140.223 96.6519 138.756 98.6673 135.82L105.502 140.223C103.837 142.94 101.603 145.021 98.7987 146.467C96.0385 147.912 93.0374 148.635 89.7952 148.635ZM105.254 147.715L108.869 127.08L113.666 99.7404H122.144L117.281 127.408L113.732 147.715H105.254ZM152.509 101.449L143.9 110.453H135.554L142.126 101.449H152.509ZM126.222 118.733C129.946 115.535 134.239 113.936 139.103 113.936C143.966 113.936 147.799 115.623 150.603 118.996C153.407 122.326 154.349 126.422 153.429 131.286C153.342 132.249 153.035 133.41 152.509 134.769H127.667C127.843 136.872 128.653 138.427 130.099 139.435C131.545 140.442 133.363 140.946 135.554 140.946C138.84 140.946 141.534 139.829 143.637 137.595L149.618 142.392C145.937 146.554 141.03 148.635 134.896 148.635C129.464 148.635 125.323 146.905 122.476 143.444C119.672 139.982 118.686 135.711 119.518 130.628C120.263 125.853 122.497 121.888 126.222 118.733ZM128.85 128.131H145.543C145.499 125.897 144.82 124.254 143.506 123.202C142.235 122.107 140.592 121.559 138.577 121.559C136.386 121.559 134.436 122.129 132.728 123.268C131.063 124.407 129.77 126.028 128.85 128.131Z" fill="white"/>
</svg>
