<svg width="157" height="149" viewBox="0 0 157 149" fill="none" xmlns="http://www.w3.org/2000/svg">
<path d="M118.448 54.687L100.376 33.876L90.5177 59.3421L107.495 78.784L82.8504 79.0579L74.0879 102.607H99.8279L118.448 54.687Z" fill="black"/>
<path d="M38.4902 102.881L77.9217 0.46875L103.662 0.46875L63.9564 102.881H38.4902Z" fill="black"/>
<path d="M25.9683 114.006C30.6562 114.006 34.2489 115.802 36.7462 119.395C39.2873 122.944 40.1636 127.106 39.3749 131.882C38.6301 136.526 36.5928 140.491 33.2631 143.777C29.9333 147.063 25.8368 148.706 20.9736 148.706C16.2418 148.706 12.8244 146.909 10.7214 143.317L9.93279 147.786H1.45502L9.53847 101.782H18.0162L15.0589 118.475C18.0381 115.496 21.6746 114.006 25.9683 114.006ZM30.8972 131.29C31.3791 128.53 30.9191 126.317 29.5171 124.653C28.1589 122.944 26.1654 122.089 23.5366 122.089C20.9079 122.089 18.5858 122.944 16.5704 124.653C14.555 126.361 13.3064 128.596 12.8244 131.356C12.3425 134.116 12.8244 136.351 14.2703 138.059C15.7161 139.768 17.7534 140.622 20.3821 140.622C23.0109 140.622 25.3111 139.768 27.2826 138.059C29.2542 136.307 30.4591 134.05 30.8972 131.29ZM66.6468 114.926H75.1246L69.3413 147.786H60.8636L61.5207 144.237C58.9358 147.216 55.5403 148.706 51.3343 148.706C47.654 148.706 44.8062 147.479 42.7908 145.025C40.7754 142.572 40.1401 139.264 40.8849 135.102L44.4338 114.926H52.9115L49.5599 134.05C49.1656 136.285 49.4503 137.972 50.4142 139.111C51.4219 140.25 52.9115 140.819 54.8831 140.819C56.8985 140.819 58.651 140.228 60.1406 139.045C61.6741 137.862 62.7475 136.088 63.3609 133.722L66.6468 114.926ZM90.1214 148.706C85.0391 148.706 81.0522 146.975 78.1605 143.514C75.3127 140.009 74.305 135.737 75.1374 130.699C75.8823 125.879 78.0948 121.892 81.7751 118.738C85.4991 115.583 89.8366 114.006 94.7874 114.006C98.161 114.006 101.053 114.795 103.462 116.372C105.872 117.905 107.603 119.965 108.654 122.55L100.965 126.624C99.7821 123.776 97.4819 122.352 94.0645 122.352C91.5234 122.352 89.2451 123.185 87.2297 124.85C85.2582 126.471 84.0533 128.574 83.6152 131.159C83.1771 133.787 83.6371 135.978 84.9953 137.731C86.3535 139.439 88.3032 140.294 90.8443 140.294C94.2617 140.294 96.9781 138.826 98.9935 135.89L105.828 140.294C104.163 143.01 101.929 145.091 99.1249 146.537C96.3647 147.983 93.3635 148.706 90.1214 148.706ZM105.58 147.786L109.195 127.15L113.992 99.8107H122.47L117.607 127.478L114.058 147.786H105.58ZM152.835 101.519L144.226 110.523H135.88L142.452 101.519H152.835ZM126.548 118.804C130.272 115.605 134.565 114.006 139.429 114.006C144.292 114.006 148.126 115.693 150.93 119.066C153.734 122.396 154.676 126.493 153.755 131.356C153.668 132.32 153.361 133.481 152.835 134.839H127.994C128.169 136.942 128.979 138.497 130.425 139.505C131.871 140.513 133.689 141.017 135.88 141.017C139.166 141.017 141.86 139.899 143.963 137.665L149.944 142.462C146.263 146.625 141.356 148.706 135.223 148.706C129.79 148.706 125.65 146.975 122.802 143.514C119.998 140.053 119.012 135.781 119.844 130.699C120.589 125.923 122.824 121.958 126.548 118.804ZM129.177 128.201H145.869C145.825 125.967 145.146 124.324 143.832 123.272C142.561 122.177 140.918 121.629 138.903 121.629C136.712 121.629 134.763 122.199 133.054 123.338C131.389 124.477 130.097 126.098 129.177 128.201Z" fill="black"/>
</svg>
