<svg width="1221" height="487" viewBox="0 0 1221 487" fill="none" xmlns="http://www.w3.org/2000/svg">
<rect y="0.969238" width="122.068" height="486" fill="#F0EAFB"/>
<path d="M50.099 106.056L47.9819 105.512L49.0262 95.1414H59.7119V97.5875H51.272L50.6426 103.252C51.0241 103.033 51.5057 102.828 52.0874 102.637C52.6787 102.446 53.3558 102.351 54.1187 102.351C55.0819 102.351 55.945 102.518 56.7079 102.852C57.4708 103.176 58.1193 103.643 58.6533 104.254C59.1969 104.864 59.6118 105.598 59.8979 106.457C60.184 107.315 60.327 108.273 60.327 109.332C60.327 110.333 60.1887 111.253 59.9122 112.093C59.6451 112.932 59.2398 113.666 58.6963 114.296C58.1527 114.915 57.466 115.397 56.6364 115.74C55.8162 116.084 54.8483 116.255 53.7325 116.255C52.8933 116.255 52.097 116.141 51.3436 115.912C50.5997 115.674 49.9322 115.316 49.3409 114.839C48.7592 114.353 48.2823 113.752 47.9104 113.037C47.548 112.312 47.3191 111.463 47.2238 110.49H49.7414C49.8559 111.272 50.0847 111.931 50.4281 112.465C50.7714 112.999 51.2196 113.404 51.7727 113.68C52.3354 113.947 52.9886 114.081 53.7325 114.081C54.3619 114.081 54.9198 113.971 55.4061 113.752C55.8925 113.533 56.3026 113.218 56.6364 112.808C56.9701 112.398 57.2229 111.902 57.3945 111.32C57.5757 110.738 57.6663 110.085 57.6663 109.36C57.6663 108.702 57.5757 108.092 57.3945 107.529C57.2133 106.967 56.9415 106.476 56.5791 106.056C56.2263 105.636 55.7924 105.312 55.2774 105.083C54.7624 104.845 54.1712 104.726 53.5036 104.726C52.6167 104.726 51.9444 104.845 51.4866 105.083C51.0384 105.322 50.5759 105.646 50.099 106.056ZM76.3055 103.896V107.072C76.3055 108.779 76.1529 110.219 75.8477 111.392C75.5426 112.565 75.1039 113.509 74.5317 114.224C73.9595 114.939 73.2681 115.459 72.4575 115.783C71.6564 116.098 70.7505 116.255 69.7396 116.255C68.9385 116.255 68.1994 116.155 67.5223 115.955C66.8452 115.755 66.2349 115.435 65.6913 114.997C65.1573 114.548 64.6995 113.967 64.3181 113.251C63.9366 112.536 63.6457 111.668 63.4455 110.648C63.2452 109.627 63.1451 108.435 63.1451 107.072V103.896C63.1451 102.189 63.2976 100.758 63.6028 99.6045C63.9175 98.4506 64.361 97.5255 64.9332 96.8294C65.5054 96.1237 66.192 95.6182 66.9931 95.3131C67.8037 95.0079 68.7096 94.8553 69.711 94.8553C70.5216 94.8553 71.2654 94.9554 71.9425 95.1557C72.6292 95.3464 73.2395 95.6564 73.7735 96.0855C74.3076 96.5051 74.7606 97.0678 75.1325 97.7735C75.514 98.4697 75.8048 99.3232 76.0051 100.334C76.2054 101.345 76.3055 102.532 76.3055 103.896ZM73.6448 107.501V103.453C73.6448 102.518 73.5876 101.698 73.4731 100.992C73.3682 100.277 73.2109 99.6665 73.0011 99.1611C72.7913 98.6556 72.5243 98.2456 72.2 97.9308C71.8853 97.6161 71.5182 97.3873 71.0985 97.2442C70.6885 97.0916 70.2259 97.0153 69.711 97.0153C69.0816 97.0153 68.5237 97.1345 68.0373 97.373C67.5509 97.6018 67.1409 97.969 66.8071 98.4744C66.4828 98.9799 66.2349 99.6427 66.0632 100.463C65.8916 101.283 65.8058 102.28 65.8058 103.453V107.501C65.8058 108.435 65.8582 109.26 65.9631 109.976C66.0775 110.691 66.2444 111.311 66.4638 111.835C66.6831 112.35 66.9501 112.774 67.2648 113.108C67.5796 113.442 67.9419 113.69 68.352 113.852C68.7716 114.005 69.2341 114.081 69.7396 114.081C70.3881 114.081 70.9555 113.957 71.4419 113.709C71.9282 113.461 72.3335 113.075 72.6578 112.55C72.9915 112.016 73.2395 111.334 73.4016 110.505C73.5637 109.666 73.6448 108.664 73.6448 107.501Z" fill="black"/>
<path d="M30.8389 193.04V207.969H28.8599V193.04H30.8389ZM37.0938 199.756V201.376H30.4082V199.756H37.0938ZM38.1089 193.04V194.66H30.4082V193.04H38.1089ZM49.3472 199.315V201.591C49.3472 202.815 49.2378 203.847 49.019 204.688C48.8003 205.529 48.4858 206.206 48.0757 206.718C47.6655 207.231 47.1699 207.604 46.5889 207.836C46.0146 208.062 45.3652 208.174 44.6406 208.174C44.0664 208.174 43.5366 208.103 43.0513 207.959C42.5659 207.815 42.1284 207.586 41.7388 207.272C41.356 206.951 41.0278 206.534 40.7544 206.021C40.481 205.508 40.2725 204.886 40.1289 204.155C39.9854 203.423 39.9136 202.569 39.9136 201.591V199.315C39.9136 198.091 40.0229 197.066 40.2417 196.239C40.4673 195.412 40.7852 194.749 41.1953 194.25C41.6055 193.744 42.0977 193.381 42.6719 193.163C43.2529 192.944 43.9023 192.834 44.6201 192.834C45.2012 192.834 45.7344 192.906 46.2197 193.05C46.7119 193.187 47.1494 193.409 47.5322 193.716C47.915 194.017 48.2397 194.42 48.5063 194.926C48.7798 195.425 48.9883 196.037 49.1318 196.762C49.2754 197.486 49.3472 198.337 49.3472 199.315ZM47.4399 201.899V198.997C47.4399 198.327 47.3989 197.739 47.3169 197.233C47.2417 196.721 47.1289 196.283 46.9785 195.921C46.8281 195.559 46.6367 195.265 46.4043 195.039C46.1787 194.813 45.9155 194.649 45.6147 194.547C45.3208 194.438 44.9893 194.383 44.6201 194.383C44.1689 194.383 43.769 194.468 43.4204 194.639C43.0718 194.803 42.7778 195.066 42.5386 195.429C42.3062 195.791 42.1284 196.266 42.0054 196.854C41.8823 197.442 41.8208 198.156 41.8208 198.997V201.899C41.8208 202.569 41.8584 203.16 41.9336 203.673C42.0156 204.186 42.1353 204.63 42.2925 205.006C42.4497 205.375 42.6411 205.679 42.8667 205.918C43.0923 206.158 43.3521 206.335 43.646 206.452C43.9468 206.561 44.2783 206.616 44.6406 206.616C45.1055 206.616 45.5122 206.527 45.8608 206.349C46.2095 206.171 46.5 205.895 46.7324 205.519C46.9717 205.136 47.1494 204.647 47.2656 204.052C47.3818 203.451 47.4399 202.733 47.4399 201.899ZM61.7646 206.359V207.969H53.8589V206.359H61.7646ZM54.2588 193.04V207.969H52.2798V193.04H54.2588ZM60.7188 199.458V201.068H53.8589V199.458H60.7188ZM61.6621 193.04V194.66H53.8589V193.04H61.6621ZM69.7422 194.362L64.7998 207.969H62.7798L68.4707 193.04H69.7729L69.7422 194.362ZM73.8848 207.969L68.9321 194.362L68.9014 193.04H70.2036L75.915 207.969H73.8848ZM73.6284 202.442V204.062H65.2407V202.442H73.6284ZM79.8936 193.04V207.969H77.9146V193.04H79.8936ZM86.1484 199.756V201.376H79.4629V199.756H86.1484ZM87.1636 193.04V194.66H79.4629V193.04H87.1636ZM94.8438 200.986H91.0601L91.0396 199.397H94.4746C95.042 199.397 95.5376 199.301 95.9614 199.11C96.3853 198.918 96.7134 198.645 96.9458 198.29C97.1851 197.927 97.3047 197.497 97.3047 196.998C97.3047 196.451 97.1987 196.006 96.9868 195.665C96.7817 195.316 96.4639 195.063 96.0332 194.906C95.6094 194.742 95.0693 194.66 94.4131 194.66H91.501V207.969H89.522V193.04H94.4131C95.1787 193.04 95.8623 193.118 96.4639 193.275C97.0654 193.426 97.5747 193.665 97.9917 193.993C98.4155 194.314 98.7368 194.725 98.9556 195.224C99.1743 195.723 99.2837 196.321 99.2837 197.018C99.2837 197.633 99.1265 198.19 98.812 198.689C98.4976 199.182 98.0601 199.585 97.4995 199.899C96.9458 200.214 96.2964 200.416 95.5513 200.504L94.8438 200.986ZM94.7515 207.969H90.2808L91.3984 206.359H94.7515C95.3804 206.359 95.9136 206.25 96.3511 206.031C96.7954 205.812 97.1338 205.505 97.3662 205.108C97.5986 204.705 97.7148 204.23 97.7148 203.683C97.7148 203.129 97.6157 202.651 97.4175 202.248C97.2192 201.844 96.9082 201.533 96.4844 201.314C96.0605 201.096 95.5137 200.986 94.8438 200.986H92.0239L92.0444 199.397H95.8999L96.3203 199.971C97.0381 200.033 97.6465 200.238 98.1455 200.586C98.6445 200.928 99.0239 201.366 99.2837 201.899C99.5503 202.432 99.6836 203.02 99.6836 203.663C99.6836 204.592 99.4785 205.378 99.0684 206.021C98.665 206.657 98.0942 207.142 97.356 207.477C96.6177 207.805 95.7495 207.969 94.7515 207.969Z" fill="black"/>
<rect x="122.068" y="0.969238" width="122.068" height="486" fill="#E2D5F6"/>
<path d="M155.205 93.027V113.969H152.558V96.3314L147.222 98.2768V95.8879L154.79 93.027H155.205ZM176.061 101.896V105.072C176.061 106.779 175.908 108.219 175.603 109.392C175.298 110.565 174.859 111.509 174.287 112.224C173.715 112.939 173.024 113.459 172.213 113.783C171.412 114.098 170.506 114.255 169.495 114.255C168.694 114.255 167.955 114.155 167.278 113.955C166.601 113.755 165.99 113.435 165.447 112.997C164.913 112.548 164.455 111.967 164.074 111.251C163.692 110.536 163.401 109.668 163.201 108.648C163.001 107.627 162.901 106.435 162.901 105.072V101.896C162.901 100.189 163.053 98.7584 163.358 97.6045C163.673 96.4506 164.116 95.5255 164.689 94.8294C165.261 94.1237 165.948 93.6182 166.749 93.3131C167.559 93.0079 168.465 92.8553 169.467 92.8553C170.277 92.8553 171.021 92.9554 171.698 93.1557C172.385 93.3464 172.995 93.6564 173.529 94.0855C174.063 94.5051 174.516 95.0678 174.888 95.7735C175.269 96.4697 175.56 97.3232 175.761 98.3341C175.961 99.3449 176.061 100.532 176.061 101.896ZM173.4 105.501V101.453C173.4 100.518 173.343 99.6978 173.229 98.9921C173.124 98.2768 172.966 97.6665 172.757 97.1611C172.547 96.6556 172.28 96.2456 171.956 95.9308C171.641 95.6161 171.274 95.3873 170.854 95.2442C170.444 95.0916 169.981 95.0153 169.467 95.0153C168.837 95.0153 168.279 95.1345 167.793 95.373C167.306 95.6018 166.896 95.969 166.563 96.4744C166.238 96.9799 165.99 97.6427 165.819 98.4628C165.647 99.2829 165.561 100.28 165.561 101.453V105.501C165.561 106.435 165.614 107.26 165.719 107.976C165.833 108.691 166 109.311 166.219 109.835C166.439 110.35 166.706 110.774 167.02 111.108C167.335 111.442 167.697 111.69 168.108 111.852C168.527 112.005 168.99 112.081 169.495 112.081C170.144 112.081 170.711 111.957 171.197 111.709C171.684 111.461 172.089 111.075 172.413 110.55C172.747 110.016 172.995 109.334 173.157 108.505C173.319 107.666 173.4 106.664 173.4 105.501ZM192.54 101.896V105.072C192.54 106.779 192.388 108.219 192.082 109.392C191.777 110.565 191.339 111.509 190.766 112.224C190.194 112.939 189.503 113.459 188.692 113.783C187.891 114.098 186.985 114.255 185.974 114.255C185.173 114.255 184.434 114.155 183.757 113.955C183.08 113.755 182.47 113.435 181.926 112.997C181.392 112.548 180.934 111.967 180.553 111.251C180.171 110.536 179.88 109.668 179.68 108.648C179.48 107.627 179.38 106.435 179.38 105.072V101.896C179.38 100.189 179.532 98.7584 179.838 97.6045C180.152 96.4506 180.596 95.5255 181.168 94.8294C181.74 94.1237 182.427 93.6182 183.228 93.3131C184.038 93.0079 184.944 92.8553 185.946 92.8553C186.756 92.8553 187.5 92.9554 188.177 93.1557C188.864 93.3464 189.474 93.6564 190.008 94.0855C190.542 94.5051 190.995 95.0678 191.367 95.7735C191.749 96.4697 192.04 97.3232 192.24 98.3341C192.44 99.3449 192.54 100.532 192.54 101.896ZM189.88 105.501V101.453C189.88 100.518 189.822 99.6978 189.708 98.9921C189.603 98.2768 189.446 97.6665 189.236 97.1611C189.026 96.6556 188.759 96.2456 188.435 95.9308C188.12 95.6161 187.753 95.3873 187.333 95.2442C186.923 95.0916 186.461 95.0153 185.946 95.0153C185.316 95.0153 184.758 95.1345 184.272 95.373C183.786 95.6018 183.376 95.969 183.042 96.4744C182.718 96.9799 182.47 97.6427 182.298 98.4628C182.126 99.2829 182.04 100.28 182.04 101.453V105.501C182.04 106.435 182.093 107.26 182.198 107.976C182.312 108.691 182.479 109.311 182.698 109.835C182.918 110.35 183.185 110.774 183.5 111.108C183.814 111.442 184.177 111.69 184.587 111.852C185.006 112.005 185.469 112.081 185.974 112.081C186.623 112.081 187.19 111.957 187.677 111.709C188.163 111.461 188.568 111.075 188.892 110.55C189.226 110.016 189.474 109.334 189.636 108.505C189.798 107.666 189.88 106.664 189.88 105.501Z" fill="black"/>
<path d="M160.405 206.359V207.969H152.499V206.359H160.405ZM152.899 193.04V207.969H150.92V193.04H152.899ZM159.359 199.458V201.068H152.499V199.458H159.359ZM160.302 193.04V194.66H152.499V193.04H160.302ZM172.146 206.411V207.969H162.374V206.605L167.265 201.161C167.866 200.491 168.331 199.923 168.659 199.458C168.994 198.987 169.227 198.566 169.356 198.197C169.493 197.821 169.562 197.438 169.562 197.049C169.562 196.557 169.459 196.112 169.254 195.716C169.056 195.312 168.762 194.991 168.372 194.752C167.982 194.513 167.511 194.393 166.957 194.393C166.294 194.393 165.74 194.523 165.296 194.783C164.858 195.036 164.53 195.391 164.312 195.849C164.093 196.307 163.983 196.833 163.983 197.428H162.086C162.086 196.587 162.271 195.818 162.64 195.121C163.009 194.424 163.556 193.87 164.281 193.46C165.005 193.043 165.897 192.834 166.957 192.834C167.9 192.834 168.707 193.002 169.377 193.337C170.047 193.665 170.56 194.13 170.915 194.731C171.277 195.326 171.458 196.023 171.458 196.823C171.458 197.261 171.383 197.705 171.233 198.156C171.089 198.601 170.888 199.045 170.628 199.489C170.375 199.934 170.078 200.371 169.736 200.802C169.401 201.232 169.042 201.656 168.659 202.073L164.66 206.411H172.146ZM178.708 207.969H175.591L175.611 206.359H178.708C179.774 206.359 180.663 206.137 181.374 205.693C182.085 205.242 182.618 204.613 182.974 203.806C183.336 202.993 183.517 202.042 183.517 200.956V200.043C183.517 199.188 183.415 198.43 183.209 197.767C183.004 197.097 182.704 196.533 182.307 196.075C181.911 195.61 181.425 195.258 180.851 195.019C180.284 194.779 179.631 194.66 178.893 194.66H175.529V193.04H178.893C179.87 193.04 180.762 193.204 181.569 193.532C182.375 193.853 183.069 194.321 183.65 194.937C184.238 195.545 184.689 196.283 185.004 197.151C185.318 198.013 185.476 198.983 185.476 200.063V200.956C185.476 202.036 185.318 203.01 185.004 203.878C184.689 204.739 184.235 205.474 183.64 206.083C183.052 206.691 182.341 207.159 181.507 207.487C180.68 207.809 179.747 207.969 178.708 207.969ZM176.647 193.04V207.969H174.668V193.04H176.647ZM190.356 200.863L188.839 200.474L189.587 193.04H197.247V194.793H191.197L190.746 198.854C191.02 198.696 191.365 198.549 191.782 198.413C192.206 198.276 192.691 198.208 193.238 198.208C193.928 198.208 194.547 198.327 195.094 198.566C195.641 198.799 196.105 199.134 196.488 199.571C196.878 200.009 197.175 200.535 197.38 201.15C197.585 201.766 197.688 202.453 197.688 203.211C197.688 203.929 197.589 204.589 197.391 205.19C197.199 205.792 196.909 206.318 196.519 206.77C196.129 207.214 195.637 207.559 195.042 207.805C194.455 208.051 193.761 208.174 192.961 208.174C192.359 208.174 191.789 208.092 191.249 207.928C190.715 207.757 190.237 207.501 189.813 207.159C189.396 206.811 189.054 206.38 188.788 205.867C188.528 205.348 188.364 204.739 188.295 204.042H190.1C190.182 204.603 190.346 205.074 190.592 205.457C190.838 205.84 191.16 206.13 191.556 206.329C191.959 206.52 192.428 206.616 192.961 206.616C193.412 206.616 193.812 206.537 194.161 206.38C194.509 206.223 194.803 205.997 195.042 205.703C195.282 205.409 195.463 205.054 195.586 204.637C195.716 204.22 195.781 203.751 195.781 203.232C195.781 202.76 195.716 202.323 195.586 201.919C195.456 201.516 195.261 201.164 195.001 200.863C194.749 200.562 194.438 200.33 194.068 200.166C193.699 199.995 193.275 199.91 192.797 199.91C192.161 199.91 191.679 199.995 191.351 200.166C191.03 200.337 190.698 200.569 190.356 200.863ZM202.241 193.04V207.969H200.262V193.04H202.241ZM208.496 199.756V201.376H201.81V199.756H208.496ZM209.511 193.04V194.66H201.81V193.04H209.511ZM218.657 193.019H218.821V194.629H218.657C217.652 194.629 216.812 194.793 216.135 195.121C215.458 195.442 214.921 195.876 214.525 196.423C214.128 196.963 213.841 197.572 213.664 198.249C213.493 198.925 213.407 199.612 213.407 200.31V202.504C213.407 203.167 213.486 203.755 213.643 204.268C213.8 204.773 214.016 205.201 214.289 205.549C214.562 205.898 214.87 206.161 215.212 206.339C215.561 206.517 215.923 206.605 216.299 206.605C216.736 206.605 217.126 206.523 217.468 206.359C217.81 206.188 218.097 205.953 218.329 205.652C218.568 205.344 218.75 204.982 218.873 204.565C218.996 204.148 219.057 203.69 219.057 203.191C219.057 202.747 219.002 202.319 218.893 201.909C218.784 201.492 218.616 201.123 218.391 200.802C218.165 200.474 217.881 200.217 217.54 200.033C217.205 199.841 216.805 199.746 216.34 199.746C215.813 199.746 215.321 199.875 214.863 200.135C214.412 200.388 214.04 200.723 213.746 201.14C213.458 201.55 213.294 201.998 213.253 202.483L212.249 202.473C212.344 201.708 212.522 201.055 212.782 200.515C213.048 199.968 213.376 199.523 213.766 199.182C214.163 198.833 214.604 198.58 215.089 198.423C215.581 198.259 216.101 198.177 216.647 198.177C217.393 198.177 218.035 198.317 218.575 198.597C219.115 198.877 219.56 199.253 219.908 199.725C220.257 200.19 220.513 200.716 220.677 201.304C220.848 201.885 220.934 202.483 220.934 203.099C220.934 203.803 220.834 204.462 220.636 205.078C220.438 205.693 220.141 206.233 219.744 206.698C219.354 207.163 218.873 207.525 218.298 207.785C217.724 208.044 217.058 208.174 216.299 208.174C215.492 208.174 214.788 208.01 214.187 207.682C213.585 207.347 213.086 206.903 212.689 206.349C212.293 205.795 211.996 205.18 211.797 204.503C211.599 203.827 211.5 203.14 211.5 202.442V201.55C211.5 200.498 211.606 199.465 211.818 198.454C212.03 197.442 212.396 196.526 212.915 195.706C213.441 194.885 214.169 194.232 215.099 193.747C216.029 193.262 217.215 193.019 218.657 193.019Z" fill="black"/>
<rect x="244.136" y="0.969238" width="122.068" height="486" fill="#C4AAEE"/>
<path d="M302.65 111.795V113.969H289.017V112.067L295.841 104.471C296.68 103.536 297.328 102.745 297.786 102.096C298.253 101.438 298.578 100.852 298.759 100.337C298.949 99.8122 299.045 99.2782 299.045 98.7346C299.045 98.048 298.902 97.4281 298.616 96.875C298.339 96.3123 297.929 95.8641 297.385 95.5303C296.842 95.1965 296.184 95.0296 295.411 95.0296C294.486 95.0296 293.714 95.2108 293.094 95.5732C292.484 95.9261 292.026 96.422 291.721 97.0609C291.416 97.6999 291.263 98.4342 291.263 99.2639H288.617C288.617 98.0909 288.874 97.018 289.389 96.0453C289.904 95.0726 290.667 94.3001 291.678 93.7279C292.689 93.1462 293.933 92.8553 295.411 92.8553C296.727 92.8553 297.853 93.089 298.787 93.5562C299.722 94.014 300.437 94.6625 300.933 95.5017C301.439 96.3314 301.691 97.3041 301.691 98.4199C301.691 99.0302 301.586 99.6501 301.377 100.28C301.176 100.899 300.895 101.519 300.533 102.139C300.18 102.759 299.765 103.369 299.288 103.97C298.821 104.571 298.32 105.162 297.786 105.744L292.207 111.795H302.65ZM318.557 101.896V105.072C318.557 106.779 318.404 108.219 318.099 109.392C317.794 110.565 317.355 111.509 316.783 112.224C316.211 112.939 315.519 113.459 314.709 113.783C313.908 114.098 313.002 114.255 311.991 114.255C311.19 114.255 310.451 114.155 309.773 113.955C309.096 113.755 308.486 113.435 307.942 112.997C307.408 112.548 306.951 111.967 306.569 111.251C306.188 110.536 305.897 109.668 305.697 108.648C305.496 107.627 305.396 106.435 305.396 105.072V101.896C305.396 100.189 305.549 98.7584 305.854 97.6045C306.169 96.4506 306.612 95.5255 307.184 94.8294C307.756 94.1237 308.443 93.6182 309.244 93.3131C310.055 93.0079 310.961 92.8553 311.962 92.8553C312.773 92.8553 313.517 92.9554 314.194 93.1557C314.88 93.3464 315.491 93.6564 316.025 94.0855C316.559 94.5051 317.012 95.0678 317.384 95.7735C317.765 96.4697 318.056 97.3232 318.256 98.3341C318.457 99.3449 318.557 100.532 318.557 101.896ZM315.896 105.501V101.453C315.896 100.518 315.839 99.6978 315.724 98.9921C315.619 98.2768 315.462 97.6665 315.252 97.1611C315.042 96.6556 314.775 96.2456 314.451 95.9308C314.136 95.6161 313.769 95.3873 313.35 95.2442C312.94 95.0916 312.477 95.0153 311.962 95.0153C311.333 95.0153 310.775 95.1345 310.288 95.373C309.802 95.6018 309.392 95.969 309.058 96.4744C308.734 96.9799 308.486 97.6427 308.314 98.4628C308.143 99.2829 308.057 100.28 308.057 101.453V105.501C308.057 106.435 308.109 107.26 308.214 107.976C308.329 108.691 308.496 109.311 308.715 109.835C308.934 110.35 309.201 110.774 309.516 111.108C309.831 111.442 310.193 111.69 310.603 111.852C311.023 112.005 311.485 112.081 311.991 112.081C312.639 112.081 313.207 111.957 313.693 111.709C314.179 111.461 314.585 111.075 314.909 110.55C315.243 110.016 315.491 109.334 315.653 108.505C315.815 107.666 315.896 106.664 315.896 105.501ZM335.036 101.896V105.072C335.036 106.779 334.883 108.219 334.578 109.392C334.273 110.565 333.834 111.509 333.262 112.224C332.69 112.939 331.998 113.459 331.188 113.783C330.387 114.098 329.481 114.255 328.47 114.255C327.669 114.255 326.93 114.155 326.253 113.955C325.576 113.755 324.965 113.435 324.422 112.997C323.888 112.548 323.43 111.967 323.048 111.251C322.667 110.536 322.376 109.668 322.176 108.648C321.975 107.627 321.875 106.435 321.875 105.072V101.896C321.875 100.189 322.028 98.7584 322.333 97.6045C322.648 96.4506 323.091 95.5255 323.663 94.8294C324.236 94.1237 324.922 93.6182 325.723 93.3131C326.534 93.0079 327.44 92.8553 328.441 92.8553C329.252 92.8553 329.996 92.9554 330.673 93.1557C331.359 93.3464 331.97 93.6564 332.504 94.0855C333.038 94.5051 333.491 95.0678 333.863 95.7735C334.244 96.4697 334.535 97.3232 334.735 98.3341C334.936 99.3449 335.036 100.532 335.036 101.896ZM332.375 105.501V101.453C332.375 100.518 332.318 99.6978 332.203 98.9921C332.099 98.2768 331.941 97.6665 331.731 97.1611C331.522 96.6556 331.255 96.2456 330.93 95.9308C330.616 95.6161 330.248 95.3873 329.829 95.2442C329.419 95.0916 328.956 95.0153 328.441 95.0153C327.812 95.0153 327.254 95.1345 326.768 95.373C326.281 95.6018 325.871 95.969 325.537 96.4744C325.213 96.9799 324.965 97.6427 324.794 98.4628C324.622 99.2829 324.536 100.28 324.536 101.453V105.501C324.536 106.435 324.589 107.26 324.693 107.976C324.808 108.691 324.975 109.311 325.194 109.835C325.413 110.35 325.68 110.774 325.995 111.108C326.31 111.442 326.672 111.69 327.082 111.852C327.502 112.005 327.964 112.081 328.47 112.081C329.118 112.081 329.686 111.957 330.172 111.709C330.659 111.461 331.064 111.075 331.388 110.55C331.722 110.016 331.97 109.334 332.132 108.505C332.294 107.666 332.375 106.664 332.375 105.501Z" fill="black"/>
<path d="M280.001 203.222H281.97C281.868 204.165 281.598 205.009 281.16 205.754C280.723 206.5 280.104 207.091 279.304 207.528C278.504 207.959 277.506 208.174 276.31 208.174C275.435 208.174 274.639 208.01 273.921 207.682C273.21 207.354 272.598 206.889 272.085 206.288C271.573 205.679 271.176 204.951 270.896 204.104C270.623 203.249 270.486 202.299 270.486 201.253V199.766C270.486 198.72 270.623 197.773 270.896 196.926C271.176 196.071 271.576 195.34 272.096 194.731C272.622 194.123 273.254 193.655 273.993 193.327C274.731 192.999 275.562 192.834 276.484 192.834C277.612 192.834 278.566 193.046 279.345 193.47C280.125 193.894 280.729 194.482 281.16 195.234C281.598 195.979 281.868 196.844 281.97 197.828H280.001C279.906 197.131 279.728 196.533 279.468 196.034C279.208 195.528 278.839 195.138 278.361 194.865C277.882 194.591 277.257 194.455 276.484 194.455C275.821 194.455 275.237 194.581 274.731 194.834C274.232 195.087 273.812 195.446 273.47 195.911C273.135 196.375 272.882 196.933 272.711 197.582C272.54 198.231 272.455 198.953 272.455 199.746V201.253C272.455 201.984 272.53 202.671 272.68 203.314C272.837 203.957 273.073 204.521 273.388 205.006C273.702 205.491 274.102 205.874 274.587 206.154C275.073 206.428 275.647 206.564 276.31 206.564C277.151 206.564 277.821 206.431 278.32 206.165C278.819 205.898 279.195 205.515 279.448 205.016C279.708 204.517 279.892 203.919 280.001 203.222ZM294.265 202.945V204.503H283.478V203.386L290.163 193.04H291.711L290.05 196.034L285.631 202.945H294.265ZM292.183 193.04V207.969H290.286V193.04H292.183ZM302.006 194.362L297.064 207.969H295.044L300.735 193.04H302.037L302.006 194.362ZM306.149 207.969L301.196 194.362L301.166 193.04H302.468L308.179 207.969H306.149ZM305.893 202.442V204.062H297.505V202.442H305.893ZM315.706 194.362L310.763 207.969H308.743L314.434 193.04H315.736L315.706 194.362ZM319.848 207.969L314.896 194.362L314.865 193.04H316.167L321.878 207.969H319.848ZM319.592 202.442V204.062H311.204V202.442H319.592ZM333.363 206.359V207.969H325.457V206.359H333.363ZM325.857 193.04V207.969H323.878V193.04H325.857ZM332.317 199.458V201.068H325.457V199.458H332.317ZM333.26 193.04V194.66H325.457V193.04H333.26ZM345.298 206.359V207.969H337.393V206.359H345.298ZM337.792 193.04V207.969H335.813V193.04H337.792ZM344.252 199.458V201.068H337.393V199.458H344.252ZM345.196 193.04V194.66H337.393V193.04H345.196Z" fill="black"/>
<rect x="366.204" y="0.969238" width="122.068" height="486" fill="#A780E5"/>
<path d="M407.874 102.254H409.763C410.688 102.254 411.451 102.101 412.051 101.796C412.662 101.481 413.115 101.057 413.41 100.523C413.716 99.9791 413.868 99.3688 413.868 98.6917C413.868 97.8906 413.735 97.2183 413.468 96.6747C413.201 96.1311 412.8 95.721 412.266 95.4445C411.732 95.1679 411.055 95.0296 410.235 95.0296C409.491 95.0296 408.833 95.1775 408.261 95.4731C407.698 95.7592 407.255 96.1693 406.93 96.7033C406.616 97.2374 406.458 97.8668 406.458 98.5915H403.812C403.812 97.533 404.079 96.5698 404.613 95.702C405.147 94.8341 405.896 94.1427 406.859 93.6278C407.832 93.1128 408.957 92.8553 410.235 92.8553C411.494 92.8553 412.595 93.0794 413.539 93.5276C414.483 93.9663 415.218 94.6243 415.742 95.5017C416.267 96.3695 416.529 97.4519 416.529 98.7489C416.529 99.2734 416.405 99.8361 416.157 100.437C415.919 101.028 415.542 101.581 415.027 102.096C414.521 102.611 413.863 103.036 413.053 103.369C412.242 103.694 411.269 103.856 410.135 103.856H407.874V102.254ZM407.874 104.428V102.84H410.135C411.46 102.84 412.557 102.997 413.425 103.312C414.293 103.627 414.974 104.046 415.47 104.571C415.976 105.095 416.329 105.672 416.529 106.302C416.739 106.922 416.844 107.542 416.844 108.161C416.844 109.134 416.677 109.997 416.343 110.751C416.019 111.504 415.556 112.143 414.955 112.667C414.364 113.192 413.668 113.588 412.867 113.855C412.066 114.122 411.193 114.255 410.249 114.255C409.343 114.255 408.49 114.127 407.688 113.869C406.897 113.612 406.196 113.24 405.586 112.753C404.975 112.257 404.498 111.652 404.155 110.937C403.812 110.212 403.64 109.387 403.64 108.462H406.287C406.287 109.187 406.444 109.821 406.759 110.364C407.083 110.908 407.541 111.332 408.132 111.638C408.733 111.933 409.438 112.081 410.249 112.081C411.06 112.081 411.756 111.943 412.338 111.666C412.929 111.38 413.382 110.951 413.697 110.379C414.021 109.807 414.183 109.087 414.183 108.219C414.183 107.351 414.002 106.64 413.639 106.087C413.277 105.525 412.762 105.11 412.094 104.843C411.436 104.566 410.659 104.428 409.763 104.428H407.874ZM433.566 101.896V105.072C433.566 106.779 433.413 108.219 433.108 109.392C432.803 110.565 432.364 111.509 431.792 112.224C431.22 112.939 430.529 113.459 429.718 113.783C428.917 114.098 428.011 114.255 427 114.255C426.199 114.255 425.46 114.155 424.783 113.955C424.106 113.755 423.495 113.435 422.952 112.997C422.418 112.548 421.96 111.967 421.578 111.251C421.197 110.536 420.906 109.668 420.706 108.648C420.506 107.627 420.405 106.435 420.405 105.072V101.896C420.405 100.189 420.558 98.7584 420.863 97.6045C421.178 96.4506 421.621 95.5255 422.194 94.8294C422.766 94.1237 423.452 93.6182 424.253 93.3131C425.064 93.0079 425.97 92.8553 426.971 92.8553C427.782 92.8553 428.526 92.9554 429.203 93.1557C429.89 93.3464 430.5 93.6564 431.034 94.0855C431.568 94.5051 432.021 95.0678 432.393 95.7735C432.774 96.4697 433.065 97.3232 433.266 98.3341C433.466 99.3449 433.566 100.532 433.566 101.896ZM430.905 105.501V101.453C430.905 100.518 430.848 99.6978 430.734 98.9921C430.629 98.2768 430.471 97.6665 430.262 97.1611C430.052 96.6556 429.785 96.2456 429.46 95.9308C429.146 95.6161 428.779 95.3873 428.359 95.2442C427.949 95.0916 427.486 95.0153 426.971 95.0153C426.342 95.0153 425.784 95.1345 425.298 95.373C424.811 95.6018 424.401 95.969 424.068 96.4744C423.743 96.9799 423.495 97.6427 423.324 98.4628C423.152 99.2829 423.066 100.28 423.066 101.453V105.501C423.066 106.435 423.119 107.26 423.224 107.976C423.338 108.691 423.505 109.311 423.724 109.835C423.944 110.35 424.211 110.774 424.525 111.108C424.84 111.442 425.202 111.69 425.612 111.852C426.032 112.005 426.495 112.081 427 112.081C427.648 112.081 428.216 111.957 428.702 111.709C429.189 111.461 429.594 111.075 429.918 110.55C430.252 110.016 430.5 109.334 430.662 108.505C430.824 107.666 430.905 106.664 430.905 105.501ZM450.045 101.896V105.072C450.045 106.779 449.892 108.219 449.587 109.392C449.282 110.565 448.843 111.509 448.271 112.224C447.699 112.939 447.008 113.459 446.197 113.783C445.396 114.098 444.49 114.255 443.479 114.255C442.678 114.255 441.939 114.155 441.262 113.955C440.585 113.755 439.974 113.435 439.431 112.997C438.897 112.548 438.439 111.967 438.058 111.251C437.676 110.536 437.385 109.668 437.185 108.648C436.985 107.627 436.885 106.435 436.885 105.072V101.896C436.885 100.189 437.037 98.7584 437.342 97.6045C437.657 96.4506 438.101 95.5255 438.673 94.8294C439.245 94.1237 439.932 93.6182 440.733 93.3131C441.543 93.0079 442.449 92.8553 443.451 92.8553C444.261 92.8553 445.005 92.9554 445.682 93.1557C446.369 93.3464 446.979 93.6564 447.513 94.0855C448.047 94.5051 448.5 95.0678 448.872 95.7735C449.254 96.4697 449.544 97.3232 449.745 98.3341C449.945 99.3449 450.045 100.532 450.045 101.896ZM447.384 105.501V101.453C447.384 100.518 447.327 99.6978 447.213 98.9921C447.108 98.2768 446.95 97.6665 446.741 97.1611C446.531 96.6556 446.264 96.2456 445.94 95.9308C445.625 95.6161 445.258 95.3873 444.838 95.2442C444.428 95.0916 443.966 95.0153 443.451 95.0153C442.821 95.0153 442.263 95.1345 441.777 95.373C441.291 95.6018 440.88 95.969 440.547 96.4744C440.222 96.9799 439.974 97.6427 439.803 98.4628C439.631 99.2829 439.545 100.28 439.545 101.453V105.501C439.545 106.435 439.598 107.26 439.703 107.976C439.817 108.691 439.984 109.311 440.203 109.835C440.423 110.35 440.69 110.774 441.004 111.108C441.319 111.442 441.682 111.69 442.092 111.852C442.511 112.005 442.974 112.081 443.479 112.081C444.128 112.081 444.695 111.957 445.181 111.709C445.668 111.461 446.073 111.075 446.397 110.55C446.731 110.016 446.979 109.334 447.141 108.505C447.303 107.666 447.384 106.664 447.384 105.501Z" fill="white"/>
<path d="M400.521 194.362L395.579 207.969H393.559L399.25 193.04H400.552L400.521 194.362ZM404.664 207.969L399.711 194.362L399.68 193.04H400.982L406.694 207.969H404.664ZM404.407 202.442V204.062H396.02V202.442H404.407ZM417.85 193.04V194.106L411.667 207.969H409.667L415.84 194.598H407.76V193.04H417.85ZM429.427 203.929C429.427 204.838 429.215 205.611 428.791 206.247C428.374 206.875 427.807 207.354 427.089 207.682C426.378 208.01 425.575 208.174 424.679 208.174C423.784 208.174 422.977 208.01 422.259 207.682C421.542 207.354 420.974 206.875 420.557 206.247C420.14 205.611 419.932 204.838 419.932 203.929C419.932 203.334 420.044 202.791 420.27 202.299C420.502 201.8 420.827 201.366 421.244 200.997C421.668 200.627 422.167 200.344 422.741 200.146C423.322 199.94 423.961 199.838 424.659 199.838C425.575 199.838 426.392 200.016 427.109 200.371C427.827 200.72 428.391 201.202 428.801 201.817C429.218 202.432 429.427 203.136 429.427 203.929ZM427.52 203.888C427.52 203.334 427.4 202.846 427.161 202.422C426.921 201.991 426.586 201.656 426.156 201.417C425.725 201.178 425.226 201.058 424.659 201.058C424.078 201.058 423.575 201.178 423.151 201.417C422.734 201.656 422.41 201.991 422.177 202.422C421.945 202.846 421.829 203.334 421.829 203.888C421.829 204.462 421.941 204.955 422.167 205.365C422.399 205.768 422.728 206.079 423.151 206.298C423.582 206.51 424.091 206.616 424.679 206.616C425.267 206.616 425.773 206.51 426.197 206.298C426.621 206.079 426.945 205.768 427.171 205.365C427.403 204.955 427.52 204.462 427.52 203.888ZM429.078 196.926C429.078 197.65 428.887 198.303 428.504 198.884C428.121 199.465 427.598 199.923 426.935 200.258C426.272 200.593 425.52 200.761 424.679 200.761C423.825 200.761 423.062 200.593 422.393 200.258C421.729 199.923 421.21 199.465 420.834 198.884C420.458 198.303 420.27 197.65 420.27 196.926C420.27 196.058 420.458 195.319 420.834 194.711C421.217 194.103 421.74 193.638 422.403 193.316C423.066 192.995 423.821 192.834 424.669 192.834C425.523 192.834 426.282 192.995 426.945 193.316C427.608 193.638 428.128 194.103 428.504 194.711C428.887 195.319 429.078 196.058 429.078 196.926ZM427.181 196.957C427.181 196.458 427.075 196.017 426.863 195.634C426.651 195.251 426.357 194.95 425.981 194.731C425.605 194.506 425.168 194.393 424.669 194.393C424.17 194.393 423.732 194.499 423.356 194.711C422.987 194.916 422.697 195.21 422.485 195.593C422.28 195.976 422.177 196.43 422.177 196.957C422.177 197.469 422.28 197.917 422.485 198.3C422.697 198.683 422.991 198.98 423.367 199.192C423.743 199.404 424.18 199.51 424.679 199.51C425.178 199.51 425.612 199.404 425.981 199.192C426.357 198.98 426.651 198.683 426.863 198.3C427.075 197.917 427.181 197.469 427.181 196.957ZM441.198 199.315V201.591C441.198 202.815 441.089 203.847 440.87 204.688C440.651 205.529 440.337 206.206 439.927 206.718C439.517 207.231 439.021 207.604 438.44 207.836C437.866 208.062 437.216 208.174 436.492 208.174C435.917 208.174 435.388 208.103 434.902 207.959C434.417 207.815 433.979 207.586 433.59 207.272C433.207 206.951 432.879 206.534 432.605 206.021C432.332 205.508 432.124 204.886 431.98 204.155C431.836 203.423 431.765 202.569 431.765 201.591V199.315C431.765 198.091 431.874 197.066 432.093 196.239C432.318 195.412 432.636 194.749 433.046 194.25C433.457 193.744 433.949 193.381 434.523 193.163C435.104 192.944 435.753 192.834 436.471 192.834C437.052 192.834 437.585 192.906 438.071 193.05C438.563 193.187 439 193.409 439.383 193.716C439.766 194.017 440.091 194.42 440.357 194.926C440.631 195.425 440.839 196.037 440.983 196.762C441.126 197.486 441.198 198.337 441.198 199.315ZM439.291 201.899V198.997C439.291 198.327 439.25 197.739 439.168 197.233C439.093 196.721 438.98 196.283 438.83 195.921C438.679 195.559 438.488 195.265 438.255 195.039C438.03 194.813 437.767 194.649 437.466 194.547C437.172 194.438 436.84 194.383 436.471 194.383C436.02 194.383 435.62 194.468 435.271 194.639C434.923 194.803 434.629 195.066 434.39 195.429C434.157 195.791 433.979 196.266 433.856 196.854C433.733 197.442 433.672 198.156 433.672 198.997V201.899C433.672 202.569 433.709 203.16 433.785 203.673C433.867 204.186 433.986 204.63 434.144 205.006C434.301 205.375 434.492 205.679 434.718 205.918C434.943 206.158 435.203 206.335 435.497 206.452C435.798 206.561 436.129 206.616 436.492 206.616C436.957 206.616 437.363 206.527 437.712 206.349C438.061 206.171 438.351 205.895 438.583 205.519C438.823 205.136 439 204.647 439.117 204.052C439.233 203.451 439.291 202.733 439.291 201.899ZM453.616 206.359V207.969H445.71V206.359H453.616ZM446.11 193.04V207.969H444.131V193.04H446.11ZM452.57 199.458V201.068H445.71V199.458H452.57ZM453.513 193.04V194.66H445.71V193.04H453.513ZM457.974 200.863L456.456 200.474L457.205 193.04H464.864V194.793H458.814L458.363 198.854C458.637 198.696 458.982 198.549 459.399 198.413C459.823 198.276 460.308 198.208 460.855 198.208C461.545 198.208 462.164 198.327 462.711 198.566C463.258 198.799 463.723 199.134 464.105 199.571C464.495 200.009 464.792 200.535 464.998 201.15C465.203 201.766 465.305 202.453 465.305 203.211C465.305 203.929 465.206 204.589 465.008 205.19C464.816 205.792 464.526 206.318 464.136 206.77C463.747 207.214 463.254 207.559 462.66 207.805C462.072 208.051 461.378 208.174 460.578 208.174C459.977 208.174 459.406 208.092 458.866 207.928C458.333 207.757 457.854 207.501 457.43 207.159C457.013 206.811 456.671 206.38 456.405 205.867C456.145 205.348 455.981 204.739 455.913 204.042H457.717C457.799 204.603 457.963 205.074 458.209 205.457C458.456 205.84 458.777 206.13 459.173 206.329C459.577 206.52 460.045 206.616 460.578 206.616C461.029 206.616 461.429 206.537 461.778 206.38C462.126 206.223 462.42 205.997 462.66 205.703C462.899 205.409 463.08 205.054 463.203 204.637C463.333 204.22 463.398 203.751 463.398 203.232C463.398 202.76 463.333 202.323 463.203 201.919C463.073 201.516 462.878 201.164 462.619 200.863C462.366 200.562 462.055 200.33 461.686 200.166C461.316 199.995 460.893 199.91 460.414 199.91C459.778 199.91 459.296 199.995 458.968 200.166C458.647 200.337 458.315 200.569 457.974 200.863Z" fill="white"/>
<rect x="488.271" y="0.969238" width="122.068" height="486" fill="#8955DD"/>
<path d="M540.088 106.96V109.134H525.039V107.575L534.366 93.1414H536.526L534.209 97.3184L528.043 106.96H540.088ZM537.184 93.1414V113.969H534.538V93.1414H537.184ZM555.566 101.896V105.072C555.566 106.779 555.413 108.219 555.108 109.392C554.803 110.565 554.364 111.509 553.792 112.224C553.22 112.939 552.529 113.459 551.718 113.783C550.917 114.098 550.011 114.255 549 114.255C548.199 114.255 547.46 114.155 546.783 113.955C546.106 113.755 545.495 113.435 544.952 112.997C544.418 112.548 543.96 111.967 543.578 111.251C543.197 110.536 542.906 109.668 542.706 108.648C542.506 107.627 542.405 106.435 542.405 105.072V101.896C542.405 100.189 542.558 98.7584 542.863 97.6045C543.178 96.4506 543.621 95.5255 544.194 94.8294C544.766 94.1237 545.452 93.6182 546.253 93.3131C547.064 93.0079 547.97 92.8553 548.971 92.8553C549.782 92.8553 550.526 92.9554 551.203 93.1557C551.89 93.3464 552.5 93.6564 553.034 94.0855C553.568 94.5051 554.021 95.0678 554.393 95.7735C554.774 96.4697 555.065 97.3232 555.266 98.3341C555.466 99.3449 555.566 100.532 555.566 101.896ZM552.905 105.501V101.453C552.905 100.518 552.848 99.6978 552.734 98.9921C552.629 98.2768 552.471 97.6665 552.262 97.1611C552.052 96.6556 551.785 96.2456 551.46 95.9308C551.146 95.6161 550.779 95.3873 550.359 95.2442C549.949 95.0916 549.486 95.0153 548.971 95.0153C548.342 95.0153 547.784 95.1345 547.298 95.373C546.811 95.6018 546.401 95.969 546.068 96.4744C545.743 96.9799 545.495 97.6427 545.324 98.4628C545.152 99.2829 545.066 100.28 545.066 101.453V105.501C545.066 106.435 545.119 107.26 545.224 107.976C545.338 108.691 545.505 109.311 545.724 109.835C545.944 110.35 546.211 110.774 546.525 111.108C546.84 111.442 547.202 111.69 547.612 111.852C548.032 112.005 548.495 112.081 549 112.081C549.648 112.081 550.216 111.957 550.702 111.709C551.189 111.461 551.594 111.075 551.918 110.55C552.252 110.016 552.5 109.334 552.662 108.505C552.824 107.666 552.905 106.664 552.905 105.501ZM572.045 101.896V105.072C572.045 106.779 571.892 108.219 571.587 109.392C571.282 110.565 570.843 111.509 570.271 112.224C569.699 112.939 569.008 113.459 568.197 113.783C567.396 114.098 566.49 114.255 565.479 114.255C564.678 114.255 563.939 114.155 563.262 113.955C562.585 113.755 561.974 113.435 561.431 112.997C560.897 112.548 560.439 111.967 560.058 111.251C559.676 110.536 559.385 109.668 559.185 108.648C558.985 107.627 558.885 106.435 558.885 105.072V101.896C558.885 100.189 559.037 98.7584 559.342 97.6045C559.657 96.4506 560.101 95.5255 560.673 94.8294C561.245 94.1237 561.932 93.6182 562.733 93.3131C563.543 93.0079 564.449 92.8553 565.451 92.8553C566.261 92.8553 567.005 92.9554 567.682 93.1557C568.369 93.3464 568.979 93.6564 569.513 94.0855C570.047 94.5051 570.5 95.0678 570.872 95.7735C571.254 96.4697 571.544 97.3232 571.745 98.3341C571.945 99.3449 572.045 100.532 572.045 101.896ZM569.384 105.501V101.453C569.384 100.518 569.327 99.6978 569.213 98.9921C569.108 98.2768 568.95 97.6665 568.741 97.1611C568.531 96.6556 568.264 96.2456 567.94 95.9308C567.625 95.6161 567.258 95.3873 566.838 95.2442C566.428 95.0916 565.966 95.0153 565.451 95.0153C564.821 95.0153 564.263 95.1345 563.777 95.373C563.291 95.6018 562.88 95.969 562.547 96.4744C562.222 96.9799 561.974 97.6427 561.803 98.4628C561.631 99.2829 561.545 100.28 561.545 101.453V105.501C561.545 106.435 561.598 107.26 561.703 107.976C561.817 108.691 561.984 109.311 562.203 109.835C562.423 110.35 562.69 110.774 563.004 111.108C563.319 111.442 563.682 111.69 564.092 111.852C564.511 112.005 564.974 112.081 565.479 112.081C566.128 112.081 566.695 111.957 567.181 111.709C567.668 111.461 568.073 111.075 568.397 110.55C568.731 110.016 568.979 109.334 569.141 108.505C569.303 107.666 569.384 106.664 569.384 105.501Z" fill="white"/>
<path d="M525.019 203.929C525.019 204.838 524.807 205.611 524.383 206.247C523.966 206.875 523.399 207.354 522.681 207.682C521.97 208.01 521.167 208.174 520.271 208.174C519.376 208.174 518.569 208.01 517.852 207.682C517.134 207.354 516.566 206.875 516.149 206.247C515.732 205.611 515.524 204.838 515.524 203.929C515.524 203.334 515.637 202.791 515.862 202.299C516.095 201.8 516.419 201.366 516.836 200.997C517.26 200.627 517.759 200.344 518.333 200.146C518.915 199.94 519.554 199.838 520.251 199.838C521.167 199.838 521.984 200.016 522.702 200.371C523.419 200.72 523.983 201.202 524.394 201.817C524.811 202.432 525.019 203.136 525.019 203.929ZM523.112 203.888C523.112 203.334 522.992 202.846 522.753 202.422C522.514 201.991 522.179 201.656 521.748 201.417C521.317 201.178 520.818 201.058 520.251 201.058C519.67 201.058 519.167 201.178 518.744 201.417C518.327 201.656 518.002 201.991 517.77 202.422C517.537 202.846 517.421 203.334 517.421 203.888C517.421 204.462 517.534 204.955 517.759 205.365C517.992 205.768 518.32 206.079 518.744 206.298C519.174 206.51 519.684 206.616 520.271 206.616C520.859 206.616 521.365 206.51 521.789 206.298C522.213 206.079 522.538 205.768 522.763 205.365C522.996 204.955 523.112 204.462 523.112 203.888ZM524.67 196.926C524.67 197.65 524.479 198.303 524.096 198.884C523.713 199.465 523.19 199.923 522.527 200.258C521.864 200.593 521.112 200.761 520.271 200.761C519.417 200.761 518.655 200.593 517.985 200.258C517.322 199.923 516.802 199.465 516.426 198.884C516.05 198.303 515.862 197.65 515.862 196.926C515.862 196.058 516.05 195.319 516.426 194.711C516.809 194.103 517.332 193.638 517.995 193.316C518.658 192.995 519.414 192.834 520.261 192.834C521.116 192.834 521.875 192.995 522.538 193.316C523.201 193.638 523.72 194.103 524.096 194.711C524.479 195.319 524.67 196.058 524.67 196.926ZM522.773 196.957C522.773 196.458 522.667 196.017 522.456 195.634C522.244 195.251 521.95 194.95 521.574 194.731C521.198 194.506 520.76 194.393 520.261 194.393C519.762 194.393 519.325 194.499 518.949 194.711C518.58 194.916 518.289 195.21 518.077 195.593C517.872 195.976 517.77 196.43 517.77 196.957C517.77 197.469 517.872 197.917 518.077 198.3C518.289 198.683 518.583 198.98 518.959 199.192C519.335 199.404 519.772 199.51 520.271 199.51C520.771 199.51 521.205 199.404 521.574 199.192C521.95 198.98 522.244 198.683 522.456 198.3C522.667 197.917 522.773 197.469 522.773 196.957ZM529.305 206.38H529.5C530.594 206.38 531.482 206.226 532.166 205.918C532.85 205.611 533.376 205.197 533.745 204.678C534.114 204.158 534.367 203.574 534.504 202.924C534.641 202.268 534.709 201.595 534.709 200.904V198.618C534.709 197.941 534.63 197.339 534.473 196.813C534.323 196.287 534.111 195.846 533.837 195.49C533.571 195.135 533.267 194.865 532.925 194.68C532.583 194.496 532.221 194.403 531.838 194.403C531.4 194.403 531.007 194.492 530.659 194.67C530.317 194.841 530.026 195.083 529.787 195.398C529.555 195.712 529.377 196.082 529.254 196.505C529.131 196.929 529.069 197.391 529.069 197.89C529.069 198.334 529.124 198.765 529.233 199.182C529.343 199.599 529.51 199.975 529.736 200.31C529.961 200.645 530.242 200.911 530.577 201.109C530.918 201.301 531.318 201.396 531.776 201.396C532.2 201.396 532.597 201.314 532.966 201.15C533.342 200.979 533.673 200.75 533.96 200.463C534.254 200.169 534.487 199.838 534.658 199.469C534.835 199.1 534.938 198.713 534.965 198.31H535.868C535.868 198.877 535.755 199.438 535.529 199.992C535.311 200.539 535.003 201.038 534.606 201.489C534.21 201.94 533.745 202.302 533.212 202.576C532.679 202.842 532.098 202.976 531.469 202.976C530.73 202.976 530.091 202.832 529.551 202.545C529.011 202.258 528.567 201.875 528.218 201.396C527.876 200.918 527.62 200.385 527.449 199.797C527.285 199.202 527.203 198.601 527.203 197.992C527.203 197.281 527.302 196.615 527.5 195.993C527.699 195.371 527.993 194.824 528.382 194.352C528.772 193.874 529.254 193.501 529.828 193.234C530.409 192.968 531.079 192.834 531.838 192.834C532.692 192.834 533.42 193.005 534.022 193.347C534.624 193.689 535.112 194.147 535.488 194.721C535.871 195.295 536.151 195.941 536.329 196.659C536.507 197.377 536.596 198.115 536.596 198.874V199.561C536.596 200.333 536.544 201.12 536.442 201.919C536.346 202.712 536.158 203.471 535.878 204.196C535.604 204.92 535.205 205.57 534.678 206.144C534.152 206.711 533.465 207.163 532.617 207.498C531.776 207.826 530.737 207.99 529.5 207.99H529.305V206.38ZM541.63 200.863L540.113 200.474L540.861 193.04H548.521V194.793H542.471L542.02 198.854C542.293 198.696 542.639 198.549 543.056 198.413C543.479 198.276 543.965 198.208 544.512 198.208C545.202 198.208 545.821 198.327 546.368 198.566C546.915 198.799 547.379 199.134 547.762 199.571C548.152 200.009 548.449 200.535 548.654 201.15C548.859 201.766 548.962 202.453 548.962 203.211C548.962 203.929 548.863 204.589 548.665 205.19C548.473 205.792 548.183 206.318 547.793 206.77C547.403 207.214 546.911 207.559 546.316 207.805C545.729 208.051 545.035 208.174 544.235 208.174C543.633 208.174 543.062 208.092 542.522 207.928C541.989 207.757 541.511 207.501 541.087 207.159C540.67 206.811 540.328 206.38 540.062 205.867C539.802 205.348 539.638 204.739 539.569 204.042H541.374C541.456 204.603 541.62 205.074 541.866 205.457C542.112 205.84 542.434 206.13 542.83 206.329C543.233 206.52 543.702 206.616 544.235 206.616C544.686 206.616 545.086 206.537 545.435 206.38C545.783 206.223 546.077 205.997 546.316 205.703C546.556 205.409 546.737 205.054 546.86 204.637C546.99 204.22 547.055 203.751 547.055 203.232C547.055 202.76 546.99 202.323 546.86 201.919C546.73 201.516 546.535 201.164 546.275 200.863C546.022 200.562 545.711 200.33 545.342 200.166C544.973 199.995 544.549 199.91 544.071 199.91C543.435 199.91 542.953 199.995 542.625 200.166C542.304 200.337 541.972 200.569 541.63 200.863ZM553.443 200.863L551.925 200.474L552.674 193.04H560.333V194.793H554.284L553.833 198.854C554.106 198.696 554.451 198.549 554.868 198.413C555.292 198.276 555.777 198.208 556.324 198.208C557.015 198.208 557.633 198.327 558.18 198.566C558.727 198.799 559.192 199.134 559.575 199.571C559.964 200.009 560.262 200.535 560.467 201.15C560.672 201.766 560.774 202.453 560.774 203.211C560.774 203.929 560.675 204.589 560.477 205.19C560.286 205.792 559.995 206.318 559.605 206.77C559.216 207.214 558.724 207.559 558.129 207.805C557.541 208.051 556.847 208.174 556.047 208.174C555.446 208.174 554.875 208.092 554.335 207.928C553.802 207.757 553.323 207.501 552.899 207.159C552.482 206.811 552.141 206.38 551.874 205.867C551.614 205.348 551.45 204.739 551.382 204.042H553.187C553.269 204.603 553.433 205.074 553.679 205.457C553.925 205.84 554.246 206.13 554.643 206.329C555.046 206.52 555.514 206.616 556.047 206.616C556.499 206.616 556.898 206.537 557.247 206.38C557.596 206.223 557.89 205.997 558.129 205.703C558.368 205.409 558.549 205.054 558.672 204.637C558.802 204.22 558.867 203.751 558.867 203.232C558.867 202.76 558.802 202.323 558.672 201.919C558.542 201.516 558.348 201.164 558.088 200.863C557.835 200.562 557.524 200.33 557.155 200.166C556.786 199.995 556.362 199.91 555.883 199.91C555.248 199.91 554.766 199.995 554.438 200.166C554.116 200.337 553.785 200.569 553.443 200.863ZM567.388 207.969H564.271L564.292 206.359H567.388C568.455 206.359 569.343 206.137 570.054 205.693C570.765 205.242 571.298 204.613 571.654 203.806C572.016 202.993 572.197 202.042 572.197 200.956V200.043C572.197 199.188 572.095 198.43 571.89 197.767C571.685 197.097 571.384 196.533 570.987 196.075C570.591 195.61 570.105 195.258 569.531 195.019C568.964 194.779 568.311 194.66 567.573 194.66H564.209V193.04H567.573C568.55 193.04 569.442 193.204 570.249 193.532C571.056 193.853 571.75 194.321 572.331 194.937C572.918 195.545 573.37 196.283 573.684 197.151C573.999 198.013 574.156 198.983 574.156 200.063V200.956C574.156 202.036 573.999 203.01 573.684 203.878C573.37 204.739 572.915 205.474 572.32 206.083C571.732 206.691 571.021 207.159 570.188 207.487C569.36 207.809 568.427 207.969 567.388 207.969ZM565.327 193.04V207.969H563.348V193.04H565.327ZM581.169 207.969H578.052L578.073 206.359H581.169C582.236 206.359 583.125 206.137 583.835 205.693C584.546 205.242 585.08 204.613 585.435 203.806C585.797 202.993 585.979 202.042 585.979 200.956V200.043C585.979 199.188 585.876 198.43 585.671 197.767C585.466 197.097 585.165 196.533 584.769 196.075C584.372 195.61 583.887 195.258 583.312 195.019C582.745 194.779 582.092 194.66 581.354 194.66H577.991V193.04H581.354C582.332 193.04 583.224 193.204 584.03 193.532C584.837 193.853 585.531 194.321 586.112 194.937C586.7 195.545 587.151 196.283 587.465 197.151C587.78 198.013 587.937 198.983 587.937 200.063V200.956C587.937 202.036 587.78 203.01 587.465 203.878C587.151 204.739 586.696 205.474 586.102 206.083C585.514 206.691 584.803 207.159 583.969 207.487C583.142 207.809 582.208 207.969 581.169 207.969ZM579.108 193.04V207.969H577.129V193.04H579.108Z" fill="white"/>
<rect x="610.339" y="0.969238" width="122.068" height="486" fill="#5B24B2"/>
<path d="M651.699 104.056L649.582 103.512L650.626 93.1414H661.312V95.5875H652.872L652.242 101.252C652.624 101.033 653.105 100.828 653.687 100.637C654.278 100.446 654.956 100.351 655.718 100.351C656.682 100.351 657.545 100.518 658.308 100.852C659.071 101.176 659.719 101.643 660.253 102.254C660.797 102.864 661.212 103.598 661.498 104.457C661.784 105.315 661.927 106.273 661.927 107.332C661.927 108.333 661.788 109.253 661.512 110.093C661.245 110.932 660.84 111.666 660.296 112.296C659.752 112.915 659.066 113.397 658.236 113.74C657.416 114.084 656.448 114.255 655.332 114.255C654.493 114.255 653.697 114.141 652.943 113.912C652.199 113.674 651.532 113.316 650.941 112.839C650.359 112.353 649.882 111.752 649.51 111.037C649.148 110.312 648.919 109.463 648.824 108.49H651.341C651.456 109.272 651.685 109.931 652.028 110.465C652.371 110.999 652.819 111.404 653.372 111.68C653.935 111.947 654.588 112.081 655.332 112.081C655.962 112.081 656.52 111.971 657.006 111.752C657.492 111.533 657.902 111.218 658.236 110.808C658.57 110.398 658.823 109.902 658.994 109.32C659.175 108.738 659.266 108.085 659.266 107.36C659.266 106.702 659.175 106.092 658.994 105.529C658.813 104.967 658.541 104.476 658.179 104.056C657.826 103.636 657.392 103.312 656.877 103.083C656.362 102.845 655.771 102.726 655.103 102.726C654.216 102.726 653.544 102.845 653.086 103.083C652.638 103.322 652.176 103.646 651.699 104.056ZM677.905 101.896V105.072C677.905 106.779 677.753 108.219 677.448 109.392C677.142 110.565 676.704 111.509 676.131 112.224C675.559 112.939 674.868 113.459 674.057 113.783C673.256 114.098 672.35 114.255 671.339 114.255C670.538 114.255 669.799 114.155 669.122 113.955C668.445 113.755 667.835 113.435 667.291 112.997C666.757 112.548 666.299 111.967 665.918 111.251C665.536 110.536 665.245 109.668 665.045 108.648C664.845 107.627 664.745 106.435 664.745 105.072V101.896C664.745 100.189 664.897 98.7584 665.203 97.6045C665.517 96.4506 665.961 95.5255 666.533 94.8294C667.105 94.1237 667.792 93.6182 668.593 93.3131C669.403 93.0079 670.309 92.8553 671.311 92.8553C672.121 92.8553 672.865 92.9554 673.542 93.1557C674.229 93.3464 674.839 93.6564 675.373 94.0855C675.907 94.5051 676.36 95.0678 676.732 95.7735C677.114 96.4697 677.405 97.3232 677.605 98.3341C677.805 99.3449 677.905 100.532 677.905 101.896ZM675.245 105.501V101.453C675.245 100.518 675.187 99.6978 675.073 98.9921C674.968 98.2768 674.811 97.6665 674.601 97.1611C674.391 96.6556 674.124 96.2456 673.8 95.9308C673.485 95.6161 673.118 95.3873 672.698 95.2442C672.288 95.0916 671.826 95.0153 671.311 95.0153C670.681 95.0153 670.123 95.1345 669.637 95.373C669.151 95.6018 668.741 95.969 668.407 96.4744C668.083 96.9799 667.835 97.6427 667.663 98.4628C667.491 99.2829 667.406 100.28 667.406 101.453V105.501C667.406 106.435 667.458 107.26 667.563 107.976C667.677 108.691 667.844 109.311 668.064 109.835C668.283 110.35 668.55 110.774 668.865 111.108C669.179 111.442 669.542 111.69 669.952 111.852C670.371 112.005 670.834 112.081 671.339 112.081C671.988 112.081 672.555 111.957 673.042 111.709C673.528 111.461 673.933 111.075 674.258 110.55C674.591 110.016 674.839 109.334 675.001 108.505C675.164 107.666 675.245 106.664 675.245 105.501ZM694.384 101.896V105.072C694.384 106.779 694.232 108.219 693.927 109.392C693.622 110.565 693.183 111.509 692.611 112.224C692.038 112.939 691.347 113.459 690.536 113.783C689.735 114.098 688.829 114.255 687.819 114.255C687.017 114.255 686.278 114.155 685.601 113.955C684.924 113.755 684.314 113.435 683.77 112.997C683.236 112.548 682.778 111.967 682.397 111.251C682.016 110.536 681.725 109.668 681.524 108.648C681.324 107.627 681.224 106.435 681.224 105.072V101.896C681.224 100.189 681.377 98.7584 681.682 97.6045C681.996 96.4506 682.44 95.5255 683.012 94.8294C683.584 94.1237 684.271 93.6182 685.072 93.3131C685.883 93.0079 686.789 92.8553 687.79 92.8553C688.601 92.8553 689.344 92.9554 690.021 93.1557C690.708 93.3464 691.318 93.6564 691.852 94.0855C692.387 94.5051 692.84 95.0678 693.211 95.7735C693.593 96.4697 693.884 97.3232 694.084 98.3341C694.284 99.3449 694.384 100.532 694.384 101.896ZM691.724 105.501V101.453C691.724 100.518 691.667 99.6978 691.552 98.9921C691.447 98.2768 691.29 97.6665 691.08 97.1611C690.87 96.6556 690.603 96.2456 690.279 95.9308C689.964 95.6161 689.597 95.3873 689.177 95.2442C688.767 95.0916 688.305 95.0153 687.79 95.0153C687.16 95.0153 686.603 95.1345 686.116 95.373C685.63 95.6018 685.22 95.969 684.886 96.4744C684.562 96.9799 684.314 97.6427 684.142 98.4628C683.971 99.2829 683.885 100.28 683.885 101.453V105.501C683.885 106.435 683.937 107.26 684.042 107.976C684.156 108.691 684.323 109.311 684.543 109.835C684.762 110.35 685.029 110.774 685.344 111.108C685.658 111.442 686.021 111.69 686.431 111.852C686.851 112.005 687.313 112.081 687.819 112.081C688.467 112.081 689.034 111.957 689.521 111.709C690.007 111.461 690.412 111.075 690.737 110.55C691.07 110.016 691.318 109.334 691.481 108.505C691.643 107.666 691.724 106.664 691.724 105.501Z" fill="white"/>
<path d="M637.931 204.863L636.414 204.474L637.162 197.04H644.822V198.793H638.772L638.321 202.854C638.594 202.696 638.939 202.549 639.356 202.413C639.78 202.276 640.266 202.208 640.812 202.208C641.503 202.208 642.122 202.327 642.668 202.566C643.215 202.799 643.68 203.134 644.063 203.571C644.453 204.009 644.75 204.535 644.955 205.15C645.16 205.766 645.263 206.453 645.263 207.211C645.263 207.929 645.164 208.589 644.965 209.19C644.774 209.792 644.483 210.318 644.094 210.77C643.704 211.214 643.212 211.559 642.617 211.805C642.029 212.051 641.335 212.174 640.536 212.174C639.934 212.174 639.363 212.092 638.823 211.928C638.29 211.757 637.812 211.501 637.388 211.159C636.971 210.811 636.629 210.38 636.362 209.867C636.103 209.348 635.938 208.739 635.87 208.042H637.675C637.757 208.603 637.921 209.074 638.167 209.457C638.413 209.84 638.734 210.13 639.131 210.329C639.534 210.52 640.002 210.616 640.536 210.616C640.987 210.616 641.387 210.537 641.735 210.38C642.084 210.223 642.378 209.997 642.617 209.703C642.856 209.409 643.038 209.054 643.161 208.637C643.291 208.22 643.355 207.751 643.355 207.232C643.355 206.76 643.291 206.323 643.161 205.919C643.031 205.516 642.836 205.164 642.576 204.863C642.323 204.562 642.012 204.33 641.643 204.166C641.274 203.995 640.85 203.91 640.372 203.91C639.736 203.91 639.254 203.995 638.926 204.166C638.604 204.337 638.273 204.569 637.931 204.863ZM653.158 204.986H649.375L649.354 203.397H652.789C653.356 203.397 653.852 203.301 654.276 203.11C654.7 202.918 655.028 202.645 655.26 202.29C655.5 201.927 655.619 201.497 655.619 200.998C655.619 200.451 655.513 200.006 655.301 199.665C655.096 199.316 654.778 199.063 654.348 198.906C653.924 198.742 653.384 198.66 652.728 198.66H649.815V211.969H647.836V197.04H652.728C653.493 197.04 654.177 197.118 654.778 197.275C655.38 197.426 655.889 197.665 656.306 197.993C656.73 198.314 657.051 198.725 657.27 199.224C657.489 199.723 657.598 200.321 657.598 201.018C657.598 201.633 657.441 202.19 657.126 202.689C656.812 203.182 656.375 203.585 655.814 203.899C655.26 204.214 654.611 204.416 653.866 204.504L653.158 204.986ZM653.066 211.969H648.595L649.713 210.359H653.066C653.695 210.359 654.228 210.25 654.666 210.031C655.11 209.812 655.448 209.505 655.681 209.108C655.913 208.705 656.029 208.23 656.029 207.683C656.029 207.129 655.93 206.651 655.732 206.248C655.534 205.844 655.223 205.533 654.799 205.314C654.375 205.096 653.828 204.986 653.158 204.986H650.338L650.359 203.397H654.214L654.635 203.971C655.353 204.033 655.961 204.238 656.46 204.586C656.959 204.928 657.338 205.366 657.598 205.899C657.865 206.432 657.998 207.02 657.998 207.663C657.998 208.592 657.793 209.378 657.383 210.021C656.979 210.657 656.409 211.142 655.67 211.477C654.932 211.805 654.064 211.969 653.066 211.969ZM670.21 210.411V211.969H660.438V210.605L665.33 205.161C665.931 204.491 666.396 203.923 666.724 203.458C667.059 202.987 667.292 202.566 667.421 202.197C667.558 201.821 667.626 201.438 667.626 201.049C667.626 200.557 667.524 200.112 667.319 199.716C667.121 199.312 666.827 198.991 666.437 198.752C666.047 198.513 665.576 198.393 665.022 198.393C664.359 198.393 663.805 198.523 663.361 198.783C662.923 199.036 662.595 199.391 662.376 199.849C662.158 200.307 662.048 200.833 662.048 201.428H660.151C660.151 200.587 660.336 199.818 660.705 199.121C661.074 198.424 661.621 197.87 662.346 197.46C663.07 197.043 663.962 196.834 665.022 196.834C665.965 196.834 666.772 197.002 667.442 197.337C668.112 197.665 668.625 198.13 668.98 198.731C669.342 199.326 669.523 200.023 669.523 200.823C669.523 201.261 669.448 201.705 669.298 202.156C669.154 202.601 668.953 203.045 668.693 203.489C668.44 203.934 668.143 204.371 667.801 204.802C667.466 205.232 667.107 205.656 666.724 206.073L662.725 210.411H670.21ZM682.331 206.945V208.503H671.543V207.386L678.229 197.04H679.777L678.116 200.034L673.697 206.945H682.331ZM680.249 197.04V211.969H678.352V197.04H680.249ZM689.867 204.986H686.083L686.063 203.397H689.498C690.065 203.397 690.561 203.301 690.985 203.11C691.409 202.918 691.737 202.645 691.969 202.29C692.208 201.927 692.328 201.497 692.328 200.998C692.328 200.451 692.222 200.006 692.01 199.665C691.805 199.316 691.487 199.063 691.057 198.906C690.633 198.742 690.093 198.66 689.437 198.66H686.524V211.969H684.545V197.04H689.437C690.202 197.04 690.886 197.118 691.487 197.275C692.089 197.426 692.598 197.665 693.015 197.993C693.439 198.314 693.76 198.725 693.979 199.224C694.198 199.723 694.307 200.321 694.307 201.018C694.307 201.633 694.15 202.19 693.835 202.689C693.521 203.182 693.083 203.585 692.523 203.899C691.969 204.214 691.32 204.416 690.575 204.504L689.867 204.986ZM689.775 211.969H685.304L686.422 210.359H689.775C690.404 210.359 690.937 210.25 691.375 210.031C691.819 209.812 692.157 209.505 692.39 209.108C692.622 208.705 692.738 208.23 692.738 207.683C692.738 207.129 692.639 206.651 692.441 206.248C692.243 205.844 691.932 205.533 691.508 205.314C691.084 205.096 690.537 204.986 689.867 204.986H687.047L687.068 203.397H690.923L691.344 203.971C692.062 204.033 692.67 204.238 693.169 204.586C693.668 204.928 694.047 205.366 694.307 205.899C694.574 206.432 694.707 207.02 694.707 207.663C694.707 208.592 694.502 209.378 694.092 210.021C693.688 210.657 693.118 211.142 692.379 211.477C691.641 211.805 690.773 211.969 689.775 211.969ZM706.919 210.411V211.969H697.147V210.605L702.039 205.161C702.64 204.491 703.105 203.923 703.433 203.458C703.768 202.987 704 202.566 704.13 202.197C704.267 201.821 704.335 201.438 704.335 201.049C704.335 200.557 704.233 200.112 704.028 199.716C703.83 199.312 703.536 198.991 703.146 198.752C702.756 198.513 702.285 198.393 701.731 198.393C701.068 198.393 700.514 198.523 700.07 198.783C699.632 199.036 699.304 199.391 699.085 199.849C698.867 200.307 698.757 200.833 698.757 201.428H696.86C696.86 200.587 697.045 199.818 697.414 199.121C697.783 198.424 698.33 197.87 699.055 197.46C699.779 197.043 700.671 196.834 701.731 196.834C702.674 196.834 703.481 197.002 704.151 197.337C704.821 197.665 705.333 198.13 705.689 198.731C706.051 199.326 706.232 200.023 706.232 200.823C706.232 201.261 706.157 201.705 706.007 202.156C705.863 202.601 705.662 203.045 705.402 203.489C705.149 203.934 704.852 204.371 704.51 204.802C704.175 205.232 703.816 205.656 703.433 206.073L699.434 210.411H706.919Z" fill="white"/>
<rect x="732.407" y="0.969238" width="122.068" height="486" fill="#5622AA"/>
<path d="M781.003 93.1128H781.232V95.3587H781.003C779.601 95.3587 778.428 95.5875 777.484 96.0453C776.54 96.4935 775.792 97.0991 775.238 97.862C774.685 98.6154 774.285 99.4641 774.037 100.408C773.798 101.352 773.679 102.311 773.679 103.284V106.345C773.679 107.27 773.789 108.09 774.008 108.805C774.228 109.511 774.528 110.107 774.909 110.593C775.291 111.08 775.72 111.447 776.197 111.695C776.683 111.943 777.189 112.067 777.713 112.067C778.324 112.067 778.867 111.952 779.344 111.723C779.821 111.485 780.221 111.156 780.546 110.736C780.879 110.307 781.132 109.802 781.304 109.22C781.475 108.638 781.561 107.999 781.561 107.303C781.561 106.683 781.485 106.087 781.332 105.515C781.18 104.933 780.946 104.418 780.631 103.97C780.317 103.512 779.921 103.155 779.444 102.897C778.977 102.63 778.419 102.497 777.77 102.497C777.036 102.497 776.349 102.678 775.71 103.04C775.081 103.393 774.561 103.86 774.151 104.442C773.751 105.014 773.522 105.639 773.465 106.316L772.063 106.302C772.196 105.234 772.444 104.323 772.807 103.57C773.179 102.807 773.636 102.187 774.18 101.71C774.733 101.224 775.348 100.871 776.025 100.651C776.712 100.423 777.437 100.308 778.2 100.308C779.239 100.308 780.135 100.504 780.889 100.895C781.642 101.286 782.262 101.81 782.748 102.468C783.235 103.117 783.592 103.851 783.821 104.671C784.06 105.482 784.179 106.316 784.179 107.174C784.179 108.157 784.041 109.077 783.764 109.935C783.488 110.794 783.073 111.547 782.52 112.195C781.976 112.844 781.304 113.349 780.503 113.712C779.702 114.074 778.772 114.255 777.713 114.255C776.588 114.255 775.606 114.026 774.766 113.569C773.927 113.101 773.231 112.482 772.678 111.709C772.125 110.937 771.71 110.078 771.433 109.134C771.157 108.19 771.019 107.232 771.019 106.259V105.014C771.019 103.546 771.166 102.106 771.462 100.694C771.758 99.2829 772.268 98.005 772.993 96.8607C773.727 95.7163 774.743 94.8055 776.04 94.1284C777.336 93.4513 778.991 93.1128 781.003 93.1128ZM800.401 101.896V105.072C800.401 106.779 800.248 108.219 799.943 109.392C799.638 110.565 799.199 111.509 798.627 112.224C798.055 112.939 797.363 113.459 796.553 113.783C795.752 114.098 794.846 114.255 793.835 114.255C793.034 114.255 792.295 114.155 791.617 113.955C790.94 113.755 790.33 113.435 789.786 112.997C789.252 112.548 788.795 111.967 788.413 111.251C788.032 110.536 787.741 109.668 787.541 108.648C787.34 107.627 787.24 106.435 787.24 105.072V101.896C787.24 100.189 787.393 98.7584 787.698 97.6045C788.013 96.4506 788.456 95.5255 789.028 94.8294C789.6 94.1237 790.287 93.6182 791.088 93.3131C791.899 93.0079 792.805 92.8553 793.806 92.8553C794.617 92.8553 795.361 92.9554 796.038 93.1557C796.724 93.3464 797.335 93.6564 797.869 94.0855C798.403 94.5051 798.856 95.0678 799.228 95.7735C799.609 96.4697 799.9 97.3232 800.1 98.3341C800.3 99.3449 800.401 100.532 800.401 101.896ZM797.74 105.501V101.453C797.74 100.518 797.683 99.6978 797.568 98.9921C797.463 98.2768 797.306 97.6665 797.096 97.1611C796.886 96.6556 796.619 96.2456 796.295 95.9308C795.98 95.6161 795.613 95.3873 795.194 95.2442C794.784 95.0916 794.321 95.0153 793.806 95.0153C793.177 95.0153 792.619 95.1345 792.132 95.373C791.646 95.6018 791.236 95.969 790.902 96.4744C790.578 96.9799 790.33 97.6427 790.158 98.4628C789.987 99.2829 789.901 100.28 789.901 101.453V105.501C789.901 106.435 789.953 107.26 790.058 107.976C790.173 108.691 790.34 109.311 790.559 109.835C790.778 110.35 791.045 110.774 791.36 111.108C791.675 111.442 792.037 111.69 792.447 111.852C792.867 112.005 793.329 112.081 793.835 112.081C794.483 112.081 795.051 111.957 795.537 111.709C796.023 111.461 796.429 111.075 796.753 110.55C797.087 110.016 797.335 109.334 797.497 108.505C797.659 107.666 797.74 106.664 797.74 105.501ZM816.88 101.896V105.072C816.88 106.779 816.727 108.219 816.422 109.392C816.117 110.565 815.678 111.509 815.106 112.224C814.534 112.939 813.842 113.459 813.032 113.783C812.231 114.098 811.325 114.255 810.314 114.255C809.513 114.255 808.774 114.155 808.097 113.955C807.42 113.755 806.809 113.435 806.266 112.997C805.732 112.548 805.274 111.967 804.892 111.251C804.511 110.536 804.22 109.668 804.02 108.648C803.819 107.627 803.719 106.435 803.719 105.072V101.896C803.719 100.189 803.872 98.7584 804.177 97.6045C804.492 96.4506 804.935 95.5255 805.507 94.8294C806.08 94.1237 806.766 93.6182 807.567 93.3131C808.378 93.0079 809.284 92.8553 810.285 92.8553C811.096 92.8553 811.84 92.9554 812.517 93.1557C813.203 93.3464 813.814 93.6564 814.348 94.0855C814.882 94.5051 815.335 95.0678 815.707 95.7735C816.088 96.4697 816.379 97.3232 816.579 98.3341C816.78 99.3449 816.88 100.532 816.88 101.896ZM814.219 105.501V101.453C814.219 100.518 814.162 99.6978 814.047 98.9921C813.943 98.2768 813.785 97.6665 813.575 97.1611C813.366 96.6556 813.099 96.2456 812.774 95.9308C812.46 95.6161 812.092 95.3873 811.673 95.2442C811.263 95.0916 810.8 95.0153 810.285 95.0153C809.656 95.0153 809.098 95.1345 808.612 95.373C808.125 95.6018 807.715 95.969 807.381 96.4744C807.057 96.9799 806.809 97.6427 806.638 98.4628C806.466 99.2829 806.38 100.28 806.38 101.453V105.501C806.38 106.435 806.433 107.26 806.537 107.976C806.652 108.691 806.819 109.311 807.038 109.835C807.257 110.35 807.524 110.774 807.839 111.108C808.154 111.442 808.516 111.69 808.926 111.852C809.346 112.005 809.808 112.081 810.314 112.081C810.962 112.081 811.53 111.957 812.016 111.709C812.503 111.461 812.908 111.075 813.232 110.55C813.566 110.016 813.814 109.334 813.976 108.505C814.138 107.666 814.219 106.664 814.219 105.501Z" fill="white"/>
<path d="M762.223 200.863L760.706 200.474L761.454 193.04H769.114V194.793H763.064L762.613 198.854C762.886 198.696 763.231 198.549 763.648 198.413C764.072 198.276 764.558 198.208 765.104 198.208C765.795 198.208 766.414 198.327 766.96 198.566C767.507 198.799 767.972 199.134 768.355 199.571C768.745 200.009 769.042 200.535 769.247 201.15C769.452 201.766 769.555 202.453 769.555 203.211C769.555 203.929 769.456 204.589 769.257 205.19C769.066 205.792 768.775 206.318 768.386 206.77C767.996 207.214 767.504 207.559 766.909 207.805C766.321 208.051 765.627 208.174 764.828 208.174C764.226 208.174 763.655 208.092 763.115 207.928C762.582 207.757 762.104 207.501 761.68 207.159C761.263 206.811 760.921 206.38 760.654 205.867C760.395 205.348 760.23 204.739 760.162 204.042H761.967C762.049 204.603 762.213 205.074 762.459 205.457C762.705 205.84 763.026 206.13 763.423 206.329C763.826 206.52 764.294 206.616 764.828 206.616C765.279 206.616 765.679 206.537 766.027 206.38C766.376 206.223 766.67 205.997 766.909 205.703C767.148 205.409 767.33 205.054 767.453 204.637C767.583 204.22 767.647 203.751 767.647 203.232C767.647 202.76 767.583 202.323 767.453 201.919C767.323 201.516 767.128 201.164 766.868 200.863C766.615 200.562 766.304 200.33 765.935 200.166C765.566 199.995 765.142 199.91 764.664 199.91C764.028 199.91 763.546 199.995 763.218 200.166C762.896 200.337 762.565 200.569 762.223 200.863ZM778.917 193.019H779.081V194.629H778.917C777.912 194.629 777.071 194.793 776.394 195.121C775.717 195.442 775.181 195.876 774.784 196.423C774.388 196.963 774.101 197.572 773.923 198.249C773.752 198.925 773.667 199.612 773.667 200.31V202.504C773.667 203.167 773.745 203.755 773.902 204.268C774.06 204.773 774.275 205.201 774.548 205.549C774.822 205.898 775.129 206.161 775.471 206.339C775.82 206.517 776.182 206.605 776.558 206.605C776.996 206.605 777.385 206.523 777.727 206.359C778.069 206.188 778.356 205.953 778.588 205.652C778.828 205.344 779.009 204.982 779.132 204.565C779.255 204.148 779.316 203.69 779.316 203.191C779.316 202.747 779.262 202.319 779.152 201.909C779.043 201.492 778.875 201.123 778.65 200.802C778.424 200.474 778.141 200.217 777.799 200.033C777.464 199.841 777.064 199.746 776.599 199.746C776.073 199.746 775.581 199.875 775.123 200.135C774.671 200.388 774.299 200.723 774.005 201.14C773.718 201.55 773.554 201.998 773.513 202.483L772.508 202.473C772.604 201.708 772.781 201.055 773.041 200.515C773.308 199.968 773.636 199.523 774.025 199.182C774.422 198.833 774.863 198.58 775.348 198.423C775.84 198.259 776.36 198.177 776.907 198.177C777.652 198.177 778.294 198.317 778.834 198.597C779.375 198.877 779.819 199.253 780.167 199.725C780.516 200.19 780.772 200.716 780.937 201.304C781.107 201.885 781.193 202.483 781.193 203.099C781.193 203.803 781.094 204.462 780.896 205.078C780.697 205.693 780.4 206.233 780.003 206.698C779.614 207.163 779.132 207.525 778.558 207.785C777.983 208.044 777.317 208.174 776.558 208.174C775.751 208.174 775.047 208.01 774.446 207.682C773.844 207.347 773.345 206.903 772.949 206.349C772.552 205.795 772.255 205.18 772.057 204.503C771.858 203.827 771.759 203.14 771.759 202.442V201.55C771.759 200.498 771.865 199.465 772.077 198.454C772.289 197.442 772.655 196.526 773.174 195.706C773.701 194.885 774.429 194.232 775.358 193.747C776.288 193.262 777.474 193.019 778.917 193.019ZM793.231 206.411V207.969H783.459V206.605L788.35 201.161C788.952 200.491 789.417 199.923 789.745 199.458C790.08 198.987 790.312 198.566 790.442 198.197C790.579 197.821 790.647 197.438 790.647 197.049C790.647 196.557 790.544 196.112 790.339 195.716C790.141 195.312 789.847 194.991 789.458 194.752C789.068 194.513 788.596 194.393 788.042 194.393C787.379 194.393 786.826 194.523 786.381 194.783C785.944 195.036 785.616 195.391 785.397 195.849C785.178 196.307 785.069 196.833 785.069 197.428H783.172C783.172 196.587 783.356 195.818 783.726 195.121C784.095 194.424 784.642 193.87 785.366 193.46C786.091 193.043 786.983 192.834 788.042 192.834C788.986 192.834 789.792 193.002 790.462 193.337C791.132 193.665 791.645 194.13 792 194.731C792.363 195.326 792.544 196.023 792.544 196.823C792.544 197.261 792.469 197.705 792.318 198.156C792.175 198.601 791.973 199.045 791.713 199.489C791.46 199.934 791.163 200.371 790.821 200.802C790.486 201.232 790.127 201.656 789.745 202.073L785.746 206.411H793.231ZM805.043 206.411V207.969H795.271V206.605L800.163 201.161C800.764 200.491 801.229 199.923 801.557 199.458C801.892 198.987 802.125 198.566 802.254 198.197C802.391 197.821 802.459 197.438 802.459 197.049C802.459 196.557 802.357 196.112 802.152 195.716C801.954 195.312 801.66 194.991 801.27 194.752C800.88 194.513 800.409 194.393 799.855 194.393C799.192 194.393 798.638 194.523 798.194 194.783C797.756 195.036 797.428 195.391 797.209 195.849C796.991 196.307 796.881 196.833 796.881 197.428H794.984C794.984 196.587 795.169 195.818 795.538 195.121C795.907 194.424 796.454 193.87 797.179 193.46C797.903 193.043 798.795 192.834 799.855 192.834C800.798 192.834 801.605 193.002 802.275 193.337C802.945 193.665 803.458 194.13 803.813 194.731C804.175 195.326 804.356 196.023 804.356 196.823C804.356 197.261 804.281 197.705 804.131 198.156C803.987 198.601 803.786 199.045 803.526 199.489C803.273 199.934 802.976 200.371 802.634 200.802C802.299 201.232 801.94 201.656 801.557 202.073L797.558 206.411H805.043ZM813.093 194.362L808.15 207.969H806.13L811.821 193.04H813.124L813.093 194.362ZM817.235 207.969L812.283 194.362L812.252 193.04H813.554L819.266 207.969H817.235ZM816.979 202.442V204.062H808.591V202.442H816.979ZM826.792 194.362L821.85 207.969H819.83L825.521 193.04H826.823L826.792 194.362ZM830.935 207.969L825.982 194.362L825.951 193.04H827.253L832.965 207.969H830.935ZM830.678 202.442V204.062H822.291V202.442H830.678Z" fill="white"/>
<rect x="854.475" y="0.969238" width="122.068" height="486" fill="#411A7F"/>
<path d="M905.803 93.1414V94.6291L897.177 113.969H894.388L902.999 95.3157H891.727V93.1414H905.803ZM921.896 101.896V105.072C921.896 106.779 921.743 108.219 921.438 109.392C921.133 110.565 920.694 111.509 920.122 112.224C919.55 112.939 918.859 113.459 918.048 113.783C917.247 114.098 916.341 114.255 915.33 114.255C914.529 114.255 913.79 114.155 913.113 113.955C912.436 113.755 911.825 113.435 911.282 112.997C910.748 112.548 910.29 111.967 909.909 111.251C909.527 110.536 909.236 109.668 909.036 108.648C908.836 107.627 908.736 106.435 908.736 105.072V101.896C908.736 100.189 908.888 98.7584 909.193 97.6045C909.508 96.4506 909.951 95.5255 910.524 94.8294C911.096 94.1237 911.782 93.6182 912.584 93.3131C913.394 93.0079 914.3 92.8553 915.301 92.8553C916.112 92.8553 916.856 92.9554 917.533 93.1557C918.22 93.3464 918.83 93.6564 919.364 94.0855C919.898 94.5051 920.351 95.0678 920.723 95.7735C921.104 96.4697 921.395 97.3232 921.596 98.3341C921.796 99.3449 921.896 100.532 921.896 101.896ZM919.235 105.501V101.453C919.235 100.518 919.178 99.6978 919.064 98.9921C918.959 98.2768 918.801 97.6665 918.592 97.1611C918.382 96.6556 918.115 96.2456 917.791 95.9308C917.476 95.6161 917.109 95.3873 916.689 95.2442C916.279 95.0916 915.816 95.0153 915.301 95.0153C914.672 95.0153 914.114 95.1345 913.628 95.373C913.141 95.6018 912.731 95.969 912.398 96.4744C912.073 96.9799 911.825 97.6427 911.654 98.4628C911.482 99.2829 911.396 100.28 911.396 101.453V105.501C911.396 106.435 911.449 107.26 911.554 107.976C911.668 108.691 911.835 109.311 912.054 109.835C912.274 110.35 912.541 110.774 912.855 111.108C913.17 111.442 913.532 111.69 913.943 111.852C914.362 112.005 914.825 112.081 915.33 112.081C915.979 112.081 916.546 111.957 917.032 111.709C917.519 111.461 917.924 111.075 918.248 110.55C918.582 110.016 918.83 109.334 918.992 108.505C919.154 107.666 919.235 106.664 919.235 105.501ZM938.375 101.896V105.072C938.375 106.779 938.223 108.219 937.917 109.392C937.612 110.565 937.174 111.509 936.601 112.224C936.029 112.939 935.338 113.459 934.527 113.783C933.726 114.098 932.82 114.255 931.809 114.255C931.008 114.255 930.269 114.155 929.592 113.955C928.915 113.755 928.305 113.435 927.761 112.997C927.227 112.548 926.769 111.967 926.388 111.251C926.006 110.536 925.715 109.668 925.515 108.648C925.315 107.627 925.215 106.435 925.215 105.072V101.896C925.215 100.189 925.367 98.7584 925.672 97.6045C925.987 96.4506 926.431 95.5255 927.003 94.8294C927.575 94.1237 928.262 93.6182 929.063 93.3131C929.873 93.0079 930.779 92.8553 931.781 92.8553C932.591 92.8553 933.335 92.9554 934.012 93.1557C934.699 93.3464 935.309 93.6564 935.843 94.0855C936.377 94.5051 936.83 95.0678 937.202 95.7735C937.584 96.4697 937.874 97.3232 938.075 98.3341C938.275 99.3449 938.375 100.532 938.375 101.896ZM935.714 105.501V101.453C935.714 100.518 935.657 99.6978 935.543 98.9921C935.438 98.2768 935.281 97.6665 935.071 97.1611C934.861 96.6556 934.594 96.2456 934.27 95.9308C933.955 95.6161 933.588 95.3873 933.168 95.2442C932.758 95.0916 932.296 95.0153 931.781 95.0153C931.151 95.0153 930.593 95.1345 930.107 95.373C929.621 95.6018 929.211 95.969 928.877 96.4744C928.553 96.9799 928.305 97.6427 928.133 98.4628C927.961 99.2829 927.875 100.28 927.875 101.453V105.501C927.875 106.435 927.928 107.26 928.033 107.976C928.147 108.691 928.314 109.311 928.533 109.835C928.753 110.35 929.02 110.774 929.335 111.108C929.649 111.442 930.012 111.69 930.422 111.852C930.841 112.005 931.304 112.081 931.809 112.081C932.458 112.081 933.025 111.957 933.512 111.709C933.998 111.461 934.403 111.075 934.727 110.55C935.061 110.016 935.309 109.334 935.471 108.505C935.633 107.666 935.714 106.664 935.714 105.501Z" fill="white"/>
<path d="M893.027 202.945V204.503H882.24V203.386L888.926 193.04H890.474L888.813 196.034L884.394 202.945H893.027ZM890.946 193.04V207.969H889.049V193.04H890.946ZM900.984 192.958V207.969H899.087V195.326L895.263 196.721V195.008L900.687 192.958H900.984ZM912.797 192.958V207.969H910.9V195.326L907.075 196.721V195.008L912.5 192.958H912.797ZM924.394 194.362L919.452 207.969H917.432L923.123 193.04H924.425L924.394 194.362ZM928.537 207.969L923.584 194.362L923.553 193.04H924.855L930.567 207.969H928.537ZM928.28 202.442V204.062H919.893V202.442H928.28ZM941.723 193.04V194.106L935.54 207.969H933.541L939.713 194.598H931.633V193.04H941.723ZM946.358 193.04V207.969H944.379V193.04H946.358ZM952.613 199.756V201.376H945.927V199.756H952.613ZM953.628 193.04V194.66H945.927V193.04H953.628Z" fill="white"/>
<rect x="976.543" y="0.969238" width="122.068" height="486" fill="#2B1155"/>
<path d="M1002.97 108.333C1002.97 109.601 1002.67 110.679 1002.08 111.566C1001.5 112.443 1000.71 113.111 999.708 113.569C998.716 114.026 997.596 114.255 996.347 114.255C995.097 114.255 993.972 114.026 992.971 113.569C991.969 113.111 991.178 112.443 990.596 111.566C990.014 110.679 989.723 109.601 989.723 108.333C989.723 107.503 989.881 106.745 990.195 106.059C990.52 105.362 990.973 104.757 991.554 104.242C992.146 103.727 992.842 103.331 993.643 103.055C994.454 102.769 995.345 102.626 996.318 102.626C997.596 102.626 998.735 102.873 999.737 103.369C1000.74 103.856 1001.52 104.528 1002.1 105.386C1002.68 106.245 1002.97 107.227 1002.97 108.333ZM1000.31 108.276C1000.31 107.503 1000.14 106.822 999.808 106.23C999.475 105.63 999.007 105.162 998.406 104.828C997.806 104.495 997.109 104.328 996.318 104.328C995.507 104.328 994.806 104.495 994.215 104.828C993.633 105.162 993.18 105.63 992.856 106.23C992.532 106.822 992.37 107.503 992.37 108.276C992.37 109.077 992.527 109.764 992.842 110.336C993.166 110.898 993.624 111.332 994.215 111.638C994.816 111.933 995.526 112.081 996.347 112.081C997.167 112.081 997.872 111.933 998.464 111.638C999.055 111.332 999.508 110.898 999.823 110.336C1000.15 109.764 1000.31 109.077 1000.31 108.276ZM1002.48 98.5629C1002.48 99.5738 1002.22 100.485 1001.68 101.295C1001.15 102.106 1000.42 102.745 999.494 103.212C998.569 103.679 997.52 103.913 996.347 103.913C995.154 103.913 994.091 103.679 993.157 103.212C992.231 102.745 991.507 102.106 990.982 101.295C990.458 100.485 990.195 99.5738 990.195 98.5629C990.195 97.3518 990.458 96.3218 990.982 95.4731C991.516 94.6243 992.246 93.9759 993.171 93.5276C994.096 93.0794 995.15 92.8553 996.332 92.8553C997.524 92.8553 998.583 93.0794 999.508 93.5276C1000.43 93.9759 1001.16 94.6243 1001.68 95.4731C1002.22 96.3218 1002.48 97.3518 1002.48 98.5629ZM999.837 98.6058C999.837 97.9097 999.689 97.2946 999.393 96.7605C999.098 96.2265 998.688 95.8069 998.163 95.5017C997.639 95.187 997.028 95.0296 996.332 95.0296C995.636 95.0296 995.026 95.1775 994.501 95.4731C993.986 95.7592 993.581 96.1693 993.285 96.7033C992.999 97.2374 992.856 97.8715 992.856 98.6058C992.856 99.3211 992.999 99.9457 993.285 100.48C993.581 101.014 993.991 101.429 994.515 101.724C995.04 102.02 995.65 102.168 996.347 102.168C997.043 102.168 997.648 102.02 998.163 101.724C998.688 101.429 999.098 101.014 999.393 100.48C999.689 99.9457 999.837 99.3211 999.837 98.6058ZM1019.39 101.896V105.072C1019.39 106.779 1019.24 108.219 1018.93 109.392C1018.63 110.565 1018.19 111.509 1017.62 112.224C1017.05 112.939 1016.35 113.459 1015.54 113.783C1014.74 114.098 1013.84 114.255 1012.83 114.255C1012.02 114.255 1011.29 114.155 1010.61 113.955C1009.93 113.755 1009.32 113.435 1008.78 112.997C1008.24 112.548 1007.79 111.967 1007.4 111.251C1007.02 110.536 1006.73 109.668 1006.53 108.648C1006.33 107.627 1006.23 106.435 1006.23 105.072V101.896C1006.23 100.189 1006.38 98.7584 1006.69 97.6045C1007 96.4506 1007.45 95.5255 1008.02 94.8294C1008.59 94.1237 1009.28 93.6182 1010.08 93.3131C1010.89 93.0079 1011.8 92.8553 1012.8 92.8553C1013.61 92.8553 1014.35 92.9554 1015.03 93.1557C1015.72 93.3464 1016.33 93.6564 1016.86 94.0855C1017.39 94.5051 1017.85 95.0678 1018.22 95.7735C1018.6 96.4697 1018.89 97.3232 1019.09 98.3341C1019.29 99.3449 1019.39 100.532 1019.39 101.896ZM1016.73 105.501V101.453C1016.73 100.518 1016.67 99.6978 1016.56 98.9921C1016.45 98.2768 1016.3 97.6665 1016.09 97.1611C1015.88 96.6556 1015.61 96.2456 1015.29 95.9308C1014.97 95.6161 1014.6 95.3873 1014.18 95.2442C1013.77 95.0916 1013.31 95.0153 1012.8 95.0153C1012.17 95.0153 1011.61 95.1345 1011.12 95.373C1010.64 95.6018 1010.23 95.969 1009.89 96.4744C1009.57 96.9799 1009.32 97.6427 1009.15 98.4628C1008.98 99.2829 1008.89 100.28 1008.89 101.453V105.501C1008.89 106.435 1008.94 107.26 1009.05 107.976C1009.16 108.691 1009.33 109.311 1009.55 109.835C1009.77 110.35 1010.04 110.774 1010.35 111.108C1010.67 111.442 1011.03 111.69 1011.44 111.852C1011.86 112.005 1012.32 112.081 1012.83 112.081C1013.47 112.081 1014.04 111.957 1014.53 111.709C1015.01 111.461 1015.42 111.075 1015.74 110.55C1016.08 110.016 1016.33 109.334 1016.49 108.505C1016.65 107.666 1016.73 106.664 1016.73 105.501ZM1035.87 101.896V105.072C1035.87 106.779 1035.72 108.219 1035.41 109.392C1035.11 110.565 1034.67 111.509 1034.1 112.224C1033.52 112.939 1032.83 113.459 1032.02 113.783C1031.22 114.098 1030.32 114.255 1029.3 114.255C1028.5 114.255 1027.76 114.155 1027.09 113.955C1026.41 113.755 1025.8 113.435 1025.26 112.997C1024.72 112.548 1024.26 111.967 1023.88 111.251C1023.5 110.536 1023.21 109.668 1023.01 108.648C1022.81 107.627 1022.71 106.435 1022.71 105.072V101.896C1022.71 100.189 1022.86 98.7584 1023.17 97.6045C1023.48 96.4506 1023.93 95.5255 1024.5 94.8294C1025.07 94.1237 1025.76 93.6182 1026.56 93.3131C1027.37 93.0079 1028.27 92.8553 1029.28 92.8553C1030.09 92.8553 1030.83 92.9554 1031.51 93.1557C1032.19 93.3464 1032.8 93.6564 1033.34 94.0855C1033.87 94.5051 1034.33 95.0678 1034.7 95.7735C1035.08 96.4697 1035.37 97.3232 1035.57 98.3341C1035.77 99.3449 1035.87 100.532 1035.87 101.896ZM1033.21 105.501V101.453C1033.21 100.518 1033.15 99.6978 1033.04 98.9921C1032.93 98.2768 1032.78 97.6665 1032.57 97.1611C1032.36 96.6556 1032.09 96.2456 1031.77 95.9308C1031.45 95.6161 1031.08 95.3873 1030.66 95.2442C1030.25 95.0916 1029.79 95.0153 1029.28 95.0153C1028.65 95.0153 1028.09 95.1345 1027.6 95.373C1027.12 95.6018 1026.71 95.969 1026.37 96.4744C1026.05 96.9799 1025.8 97.6427 1025.63 98.4628C1025.46 99.2829 1025.37 100.28 1025.37 101.453V105.501C1025.37 106.435 1025.42 107.26 1025.53 107.976C1025.64 108.691 1025.81 109.311 1026.03 109.835C1026.25 110.35 1026.52 110.774 1026.83 111.108C1027.14 111.442 1027.51 111.69 1027.92 111.852C1028.34 112.005 1028.8 112.081 1029.3 112.081C1029.95 112.081 1030.52 111.957 1031.01 111.709C1031.49 111.461 1031.9 111.075 1032.22 110.55C1032.56 110.016 1032.8 109.334 1032.97 108.505C1033.13 107.666 1033.21 106.664 1033.21 105.501Z" fill="white"/>
<path d="M1014.99 206.411V207.969H1005.22V206.605L1010.11 201.161C1010.71 200.491 1011.18 199.923 1011.51 199.458C1011.84 198.987 1012.07 198.566 1012.2 198.197C1012.34 197.821 1012.41 197.438 1012.41 197.049C1012.41 196.557 1012.31 196.112 1012.1 195.716C1011.9 195.312 1011.61 194.991 1011.22 194.752C1010.83 194.513 1010.36 194.393 1009.8 194.393C1009.14 194.393 1008.59 194.523 1008.14 194.783C1007.71 195.036 1007.38 195.391 1007.16 195.849C1006.94 196.307 1006.83 196.833 1006.83 197.428H1004.93C1004.93 196.587 1005.12 195.818 1005.49 195.121C1005.86 194.424 1006.4 193.87 1007.13 193.46C1007.85 193.043 1008.74 192.834 1009.8 192.834C1010.75 192.834 1011.55 193.002 1012.22 193.337C1012.89 193.665 1013.41 194.13 1013.76 194.731C1014.12 195.326 1014.31 196.023 1014.31 196.823C1014.31 197.261 1014.23 197.705 1014.08 198.156C1013.94 198.601 1013.73 199.045 1013.48 199.489C1013.22 199.934 1012.92 200.371 1012.58 200.802C1012.25 201.232 1011.89 201.656 1011.51 202.073L1007.51 206.411H1014.99ZM1022.84 200.986H1019.05L1019.03 199.397H1022.47C1023.04 199.397 1023.53 199.301 1023.95 199.11C1024.38 198.918 1024.71 198.645 1024.94 198.29C1025.18 197.927 1025.3 197.497 1025.3 196.998C1025.3 196.451 1025.19 196.006 1024.98 195.665C1024.77 195.316 1024.46 195.063 1024.03 194.906C1023.6 194.742 1023.06 194.66 1022.41 194.66H1019.49V207.969H1017.52V193.04H1022.41C1023.17 193.04 1023.86 193.118 1024.46 193.275C1025.06 193.426 1025.57 193.665 1025.98 193.993C1026.41 194.314 1026.73 194.725 1026.95 195.224C1027.17 195.723 1027.28 196.321 1027.28 197.018C1027.28 197.633 1027.12 198.19 1026.81 198.689C1026.49 199.182 1026.05 199.585 1025.49 199.899C1024.94 200.214 1024.29 200.416 1023.54 200.504L1022.84 200.986ZM1022.74 207.969H1018.27L1019.39 206.359H1022.74C1023.37 206.359 1023.91 206.25 1024.34 206.031C1024.79 205.812 1025.13 205.505 1025.36 205.108C1025.59 204.705 1025.71 204.23 1025.71 203.683C1025.71 203.129 1025.61 202.651 1025.41 202.248C1025.21 201.844 1024.9 201.533 1024.48 201.314C1024.05 201.096 1023.51 200.986 1022.84 200.986H1020.02L1020.04 199.397H1023.89L1024.31 199.971C1025.03 200.033 1025.64 200.238 1026.14 200.586C1026.64 200.928 1027.02 201.366 1027.28 201.899C1027.54 202.432 1027.68 203.02 1027.68 203.663C1027.68 204.592 1027.47 205.378 1027.06 206.021C1026.66 206.657 1026.09 207.142 1025.35 207.477C1024.61 207.805 1023.74 207.969 1022.74 207.969ZM1036.34 192.958V207.969H1034.44V195.326L1030.62 196.721V195.008L1036.04 192.958H1036.34ZM1048.15 192.958V207.969H1046.26V195.326L1042.43 196.721V195.008L1047.86 192.958H1048.15ZM1056.13 200.863L1054.61 200.474L1055.36 193.04H1063.02V194.793H1056.97L1056.52 198.854C1056.79 198.696 1057.14 198.549 1057.56 198.413C1057.98 198.276 1058.47 198.208 1059.01 198.208C1059.7 198.208 1060.32 198.327 1060.87 198.566C1061.42 198.799 1061.88 199.134 1062.26 199.571C1062.65 200.009 1062.95 200.535 1063.16 201.15C1063.36 201.766 1063.46 202.453 1063.46 203.211C1063.46 203.929 1063.36 204.589 1063.17 205.19C1062.97 205.792 1062.68 206.318 1062.29 206.77C1061.9 207.214 1061.41 207.559 1060.82 207.805C1060.23 208.051 1059.54 208.174 1058.74 208.174C1058.13 208.174 1057.56 208.092 1057.02 207.928C1056.49 207.757 1056.01 207.501 1055.59 207.159C1055.17 206.811 1054.83 206.38 1054.56 205.867C1054.3 205.348 1054.14 204.739 1054.07 204.042H1055.88C1055.96 204.603 1056.12 205.074 1056.37 205.457C1056.61 205.84 1056.93 206.13 1057.33 206.329C1057.73 206.52 1058.2 206.616 1058.74 206.616C1059.19 206.616 1059.59 206.537 1059.94 206.38C1060.28 206.223 1060.58 205.997 1060.82 205.703C1061.06 205.409 1061.24 205.054 1061.36 204.637C1061.49 204.22 1061.56 203.751 1061.56 203.232C1061.56 202.76 1061.49 202.323 1061.36 201.919C1061.23 201.516 1061.04 201.164 1060.78 200.863C1060.52 200.562 1060.21 200.33 1059.84 200.166C1059.47 199.995 1059.05 199.91 1058.57 199.91C1057.94 199.91 1057.45 199.995 1057.13 200.166C1056.8 200.337 1056.47 200.569 1056.13 200.863ZM1067.94 200.863L1066.43 200.474L1067.17 193.04H1074.83V194.793H1068.78L1068.33 198.854C1068.61 198.696 1068.95 198.549 1069.37 198.413C1069.79 198.276 1070.28 198.208 1070.83 198.208C1071.52 198.208 1072.13 198.327 1072.68 198.566C1073.23 198.799 1073.69 199.134 1074.08 199.571C1074.47 200.009 1074.76 200.535 1074.97 201.15C1075.17 201.766 1075.28 202.453 1075.28 203.211C1075.28 203.929 1075.18 204.589 1074.98 205.19C1074.79 205.792 1074.5 206.318 1074.11 206.77C1073.72 207.214 1073.22 207.559 1072.63 207.805C1072.04 208.051 1071.35 208.174 1070.55 208.174C1069.95 208.174 1069.38 208.092 1068.84 207.928C1068.3 207.757 1067.82 207.501 1067.4 207.159C1066.98 206.811 1066.64 206.38 1066.38 205.867C1066.12 205.348 1065.95 204.739 1065.88 204.042H1067.69C1067.77 204.603 1067.93 205.074 1068.18 205.457C1068.43 205.84 1068.75 206.13 1069.14 206.329C1069.55 206.52 1070.02 206.616 1070.55 206.616C1071 206.616 1071.4 206.537 1071.75 206.38C1072.1 206.223 1072.39 205.997 1072.63 205.703C1072.87 205.409 1073.05 205.054 1073.17 204.637C1073.3 204.22 1073.37 203.751 1073.37 203.232C1073.37 202.76 1073.3 202.323 1073.17 201.919C1073.04 201.516 1072.85 201.164 1072.59 200.863C1072.34 200.562 1072.02 200.33 1071.66 200.166C1071.29 199.995 1070.86 199.91 1070.38 199.91C1069.75 199.91 1069.27 199.995 1068.94 200.166C1068.62 200.337 1068.29 200.569 1067.94 200.863Z" fill="white"/>
<rect x="1098.61" y="0.969238" width="122.068" height="486" fill="#16092A"/>
<path d="M1147.97 111.752H1148.24C1149.76 111.752 1151 111.537 1151.96 111.108C1152.91 110.679 1153.64 110.102 1154.16 109.377C1154.67 108.653 1155.03 107.837 1155.22 106.931C1155.41 106.016 1155.5 105.076 1155.5 104.113V100.923C1155.5 99.9791 1155.39 99.1399 1155.17 98.4056C1154.97 97.6713 1154.67 97.0562 1154.29 96.5603C1153.92 96.0644 1153.49 95.6877 1153.01 95.4302C1152.54 95.1727 1152.03 95.0439 1151.5 95.0439C1150.89 95.0439 1150.34 95.1679 1149.85 95.4159C1149.38 95.6543 1148.97 95.9928 1148.64 96.4315C1148.31 96.8702 1148.07 97.3852 1147.89 97.9764C1147.72 98.5677 1147.64 99.2114 1147.64 99.9076C1147.64 100.527 1147.71 101.128 1147.87 101.71C1148.02 102.292 1148.25 102.816 1148.57 103.284C1148.88 103.751 1149.27 104.123 1149.74 104.399C1150.22 104.666 1150.77 104.8 1151.41 104.8C1152 104.8 1152.56 104.685 1153.07 104.457C1153.6 104.218 1154.06 103.899 1154.46 103.498C1154.87 103.088 1155.19 102.626 1155.43 102.111C1155.68 101.596 1155.82 101.057 1155.86 100.494H1157.12C1157.12 101.286 1156.96 102.068 1156.65 102.84C1156.34 103.603 1155.91 104.299 1155.36 104.929C1154.81 105.558 1154.16 106.063 1153.42 106.445C1152.67 106.817 1151.86 107.003 1150.98 107.003C1149.95 107.003 1149.06 106.803 1148.31 106.402C1147.56 106.001 1146.94 105.467 1146.45 104.8C1145.97 104.132 1145.61 103.388 1145.38 102.568C1145.15 101.739 1145.03 100.899 1145.03 100.051C1145.03 99.0588 1145.17 98.129 1145.45 97.2612C1145.72 96.3934 1146.13 95.6304 1146.68 94.9724C1147.22 94.3049 1147.89 93.7851 1148.69 93.4132C1149.51 93.0413 1150.44 92.8553 1151.5 92.8553C1152.69 92.8553 1153.71 93.0937 1154.55 93.5705C1155.38 94.0474 1156.07 94.6863 1156.59 95.4874C1157.13 96.2885 1157.52 97.1897 1157.76 98.191C1158.01 99.1923 1158.14 100.222 1158.14 101.281V102.239C1158.14 103.317 1158.06 104.414 1157.92 105.529C1157.79 106.636 1157.53 107.694 1157.13 108.705C1156.75 109.716 1156.2 110.622 1155.46 111.423C1154.73 112.215 1153.77 112.844 1152.59 113.311C1151.41 113.769 1149.96 113.998 1148.24 113.998H1147.97V111.752ZM1174.89 101.896V105.072C1174.89 106.779 1174.73 108.219 1174.43 109.392C1174.12 110.565 1173.69 111.509 1173.11 112.224C1172.54 112.939 1171.85 113.459 1171.04 113.783C1170.24 114.098 1169.33 114.255 1168.32 114.255C1167.52 114.255 1166.78 114.155 1166.1 113.955C1165.43 113.755 1164.82 113.435 1164.27 112.997C1163.74 112.548 1163.28 111.967 1162.9 111.251C1162.52 110.536 1162.23 109.668 1162.03 108.648C1161.83 107.627 1161.73 106.435 1161.73 105.072V101.896C1161.73 100.189 1161.88 98.7584 1162.18 97.6045C1162.5 96.4506 1162.94 95.5255 1163.51 94.8294C1164.09 94.1237 1164.77 93.6182 1165.57 93.3131C1166.39 93.0079 1167.29 92.8553 1168.29 92.8553C1169.1 92.8553 1169.85 92.9554 1170.52 93.1557C1171.21 93.3464 1171.82 93.6564 1172.36 94.0855C1172.89 94.5051 1173.34 95.0678 1173.71 95.7735C1174.1 96.4697 1174.39 97.3232 1174.59 98.3341C1174.79 99.3449 1174.89 100.532 1174.89 101.896ZM1172.23 105.501V101.453C1172.23 100.518 1172.17 99.6978 1172.05 98.9921C1171.95 98.2768 1171.79 97.6665 1171.58 97.1611C1171.37 96.6556 1171.11 96.2456 1170.78 95.9308C1170.47 95.6161 1170.1 95.3873 1169.68 95.2442C1169.27 95.0916 1168.81 95.0153 1168.29 95.0153C1167.66 95.0153 1167.11 95.1345 1166.62 95.373C1166.13 95.6018 1165.72 95.969 1165.39 96.4744C1165.06 96.9799 1164.82 97.6427 1164.64 98.4628C1164.47 99.2829 1164.39 100.28 1164.39 101.453V105.501C1164.39 106.435 1164.44 107.26 1164.54 107.976C1164.66 108.691 1164.83 109.311 1165.05 109.835C1165.26 110.35 1165.53 110.774 1165.85 111.108C1166.16 111.442 1166.52 111.69 1166.93 111.852C1167.35 112.005 1167.82 112.081 1168.32 112.081C1168.97 112.081 1169.54 111.957 1170.02 111.709C1170.51 111.461 1170.91 111.075 1171.24 110.55C1171.57 110.016 1171.82 109.334 1171.98 108.505C1172.15 107.666 1172.23 106.664 1172.23 105.501ZM1191.37 101.896V105.072C1191.37 106.779 1191.21 108.219 1190.91 109.392C1190.6 110.565 1190.16 111.509 1189.59 112.224C1189.02 112.939 1188.33 113.459 1187.52 113.783C1186.72 114.098 1185.81 114.255 1184.8 114.255C1184 114.255 1183.26 114.155 1182.58 113.955C1181.91 113.755 1181.3 113.435 1180.75 112.997C1180.22 112.548 1179.76 111.967 1179.38 111.251C1179 110.536 1178.71 109.668 1178.51 108.648C1178.31 107.627 1178.21 106.435 1178.21 105.072V101.896C1178.21 100.189 1178.36 98.7584 1178.66 97.6045C1178.98 96.4506 1179.42 95.5255 1179.99 94.8294C1180.57 94.1237 1181.25 93.6182 1182.05 93.3131C1182.86 93.0079 1183.77 92.8553 1184.77 92.8553C1185.58 92.8553 1186.33 92.9554 1187 93.1557C1187.69 93.3464 1188.3 93.6564 1188.83 94.0855C1189.37 94.5051 1189.82 95.0678 1190.19 95.7735C1190.57 96.4697 1190.87 97.3232 1191.07 98.3341C1191.27 99.3449 1191.37 100.532 1191.37 101.896ZM1188.71 105.501V101.453C1188.71 100.518 1188.65 99.6978 1188.53 98.9921C1188.43 98.2768 1188.27 97.6665 1188.06 97.1611C1187.85 96.6556 1187.58 96.2456 1187.26 95.9308C1186.95 95.6161 1186.58 95.3873 1186.16 95.2442C1185.75 95.0916 1185.29 95.0153 1184.77 95.0153C1184.14 95.0153 1183.58 95.1345 1183.1 95.373C1182.61 95.6018 1182.2 95.969 1181.87 96.4744C1181.54 96.9799 1181.3 97.6427 1181.12 98.4628C1180.95 99.2829 1180.87 100.28 1180.87 101.453V105.501C1180.87 106.435 1180.92 107.26 1181.02 107.976C1181.14 108.691 1181.31 109.311 1181.52 109.835C1181.74 110.35 1182.01 110.774 1182.33 111.108C1182.64 111.442 1183 111.69 1183.41 111.852C1183.83 112.005 1184.29 112.081 1184.8 112.081C1185.45 112.081 1186.02 111.957 1186.5 111.709C1186.99 111.461 1187.39 111.075 1187.72 110.55C1188.05 110.016 1188.3 109.334 1188.46 108.505C1188.62 107.666 1188.71 106.664 1188.71 105.501Z" fill="white"/>
<path d="M1133.21 192.958V207.969H1131.31V195.326L1127.48 196.721V195.008L1132.91 192.958H1133.21ZM1146.06 193.019H1146.23V194.629H1146.06C1145.06 194.629 1144.22 194.793 1143.54 195.121C1142.86 195.442 1142.33 195.876 1141.93 196.423C1141.53 196.963 1141.25 197.572 1141.07 198.249C1140.9 198.925 1140.81 199.612 1140.81 200.31V202.504C1140.81 203.167 1140.89 203.755 1141.05 204.268C1141.21 204.773 1141.42 205.201 1141.7 205.549C1141.97 205.898 1142.28 206.161 1142.62 206.339C1142.97 206.517 1143.33 206.605 1143.71 206.605C1144.14 206.605 1144.53 206.523 1144.87 206.359C1145.22 206.188 1145.5 205.953 1145.74 205.652C1145.97 205.344 1146.16 204.982 1146.28 204.565C1146.4 204.148 1146.46 203.69 1146.46 203.191C1146.46 202.747 1146.41 202.319 1146.3 201.909C1146.19 201.492 1146.02 201.123 1145.8 200.802C1145.57 200.474 1145.29 200.217 1144.95 200.033C1144.61 199.841 1144.21 199.746 1143.75 199.746C1143.22 199.746 1142.73 199.875 1142.27 200.135C1141.82 200.388 1141.45 200.723 1141.15 201.14C1140.86 201.55 1140.7 201.998 1140.66 202.483L1139.65 202.473C1139.75 201.708 1139.93 201.055 1140.19 200.515C1140.45 199.968 1140.78 199.523 1141.17 199.182C1141.57 198.833 1142.01 198.58 1142.5 198.423C1142.99 198.259 1143.51 198.177 1144.05 198.177C1144.8 198.177 1145.44 198.317 1145.98 198.597C1146.52 198.877 1146.97 199.253 1147.31 199.725C1147.66 200.19 1147.92 200.716 1148.08 201.304C1148.25 201.885 1148.34 202.483 1148.34 203.099C1148.34 203.803 1148.24 204.462 1148.04 205.078C1147.84 205.693 1147.55 206.233 1147.15 206.698C1146.76 207.163 1146.28 207.525 1145.7 207.785C1145.13 208.044 1144.46 208.174 1143.71 208.174C1142.9 208.174 1142.19 208.01 1141.59 207.682C1140.99 207.347 1140.49 206.903 1140.1 206.349C1139.7 205.795 1139.4 205.18 1139.2 204.503C1139.01 203.827 1138.91 203.14 1138.91 202.442V201.55C1138.91 200.498 1139.01 199.465 1139.22 198.454C1139.44 197.442 1139.8 196.526 1140.32 195.706C1140.85 194.885 1141.58 194.232 1142.51 193.747C1143.44 193.262 1144.62 193.019 1146.06 193.019ZM1159.97 199.315V201.591C1159.97 202.815 1159.86 203.847 1159.64 204.688C1159.42 205.529 1159.11 206.206 1158.7 206.718C1158.29 207.231 1157.79 207.604 1157.21 207.836C1156.64 208.062 1155.99 208.174 1155.26 208.174C1154.69 208.174 1154.16 208.103 1153.67 207.959C1153.19 207.815 1152.75 207.586 1152.36 207.272C1151.98 206.951 1151.65 206.534 1151.38 206.021C1151.1 205.508 1150.89 204.886 1150.75 204.155C1150.61 203.423 1150.53 202.569 1150.53 201.591V199.315C1150.53 198.091 1150.64 197.066 1150.86 196.239C1151.09 195.412 1151.41 194.749 1151.82 194.25C1152.23 193.744 1152.72 193.381 1153.29 193.163C1153.87 192.944 1154.52 192.834 1155.24 192.834C1155.82 192.834 1156.35 192.906 1156.84 193.05C1157.33 193.187 1157.77 193.409 1158.15 193.716C1158.54 194.017 1158.86 194.42 1159.13 194.926C1159.4 195.425 1159.61 196.037 1159.75 196.762C1159.9 197.486 1159.97 198.337 1159.97 199.315ZM1158.06 201.899V198.997C1158.06 198.327 1158.02 197.739 1157.94 197.233C1157.86 196.721 1157.75 196.283 1157.6 195.921C1157.45 195.559 1157.26 195.265 1157.02 195.039C1156.8 194.813 1156.54 194.649 1156.24 194.547C1155.94 194.438 1155.61 194.383 1155.24 194.383C1154.79 194.383 1154.39 194.468 1154.04 194.639C1153.69 194.803 1153.4 195.066 1153.16 195.429C1152.93 195.791 1152.75 196.266 1152.63 196.854C1152.5 197.442 1152.44 198.156 1152.44 198.997V201.899C1152.44 202.569 1152.48 203.16 1152.55 203.673C1152.64 204.186 1152.76 204.63 1152.91 205.006C1153.07 205.375 1153.26 205.679 1153.49 205.918C1153.71 206.158 1153.97 206.335 1154.27 206.452C1154.57 206.561 1154.9 206.616 1155.26 206.616C1155.73 206.616 1156.13 206.527 1156.48 206.349C1156.83 206.171 1157.12 205.895 1157.35 205.519C1157.59 205.136 1157.77 204.647 1157.89 204.052C1158 203.451 1158.06 202.733 1158.06 201.899ZM1164.29 206.38H1164.49C1165.58 206.38 1166.47 206.226 1167.16 205.918C1167.84 205.611 1168.37 205.197 1168.73 204.678C1169.1 204.158 1169.36 203.574 1169.49 202.924C1169.63 202.268 1169.7 201.595 1169.7 200.904V198.618C1169.7 197.941 1169.62 197.339 1169.46 196.813C1169.31 196.287 1169.1 195.846 1168.83 195.49C1168.56 195.135 1168.26 194.865 1167.91 194.68C1167.57 194.496 1167.21 194.403 1166.83 194.403C1166.39 194.403 1166 194.492 1165.65 194.67C1165.31 194.841 1165.02 195.083 1164.78 195.398C1164.54 195.712 1164.37 196.082 1164.24 196.505C1164.12 196.929 1164.06 197.391 1164.06 197.89C1164.06 198.334 1164.11 198.765 1164.22 199.182C1164.33 199.599 1164.5 199.975 1164.73 200.31C1164.95 200.645 1165.23 200.911 1165.57 201.109C1165.91 201.301 1166.31 201.396 1166.77 201.396C1167.19 201.396 1167.59 201.314 1167.96 201.15C1168.33 200.979 1168.66 200.75 1168.95 200.463C1169.24 200.169 1169.48 199.838 1169.65 199.469C1169.83 199.1 1169.93 198.713 1169.96 198.31H1170.86C1170.86 198.877 1170.74 199.438 1170.52 199.992C1170.3 200.539 1169.99 201.038 1169.6 201.489C1169.2 201.94 1168.73 202.302 1168.2 202.576C1167.67 202.842 1167.09 202.976 1166.46 202.976C1165.72 202.976 1165.08 202.832 1164.54 202.545C1164 202.258 1163.56 201.875 1163.21 201.396C1162.87 200.918 1162.61 200.385 1162.44 199.797C1162.27 199.202 1162.19 198.601 1162.19 197.992C1162.19 197.281 1162.29 196.615 1162.49 195.993C1162.69 195.371 1162.98 194.824 1163.37 194.352C1163.76 193.874 1164.24 193.501 1164.82 193.234C1165.4 192.968 1166.07 192.834 1166.83 192.834C1167.68 192.834 1168.41 193.005 1169.01 193.347C1169.61 193.689 1170.1 194.147 1170.48 194.721C1170.86 195.295 1171.14 195.941 1171.32 196.659C1171.5 197.377 1171.59 198.115 1171.59 198.874V199.561C1171.59 200.333 1171.53 201.12 1171.43 201.919C1171.34 202.712 1171.15 203.471 1170.87 204.196C1170.59 204.92 1170.19 205.57 1169.67 206.144C1169.14 206.711 1168.45 207.163 1167.61 207.498C1166.77 207.826 1165.73 207.99 1164.49 207.99H1164.29V206.38ZM1184 206.411V207.969H1174.23V206.605L1179.12 201.161C1179.72 200.491 1180.19 199.923 1180.52 199.458C1180.85 198.987 1181.08 198.566 1181.21 198.197C1181.35 197.821 1181.42 197.438 1181.42 197.049C1181.42 196.557 1181.32 196.112 1181.11 195.716C1180.91 195.312 1180.62 194.991 1180.23 194.752C1179.84 194.513 1179.37 194.393 1178.81 194.393C1178.15 194.393 1177.6 194.523 1177.15 194.783C1176.72 195.036 1176.39 195.391 1176.17 195.849C1175.95 196.307 1175.84 196.833 1175.84 197.428H1173.94C1173.94 196.587 1174.13 195.818 1174.5 195.121C1174.87 194.424 1175.41 193.87 1176.14 193.46C1176.86 193.043 1177.75 192.834 1178.81 192.834C1179.76 192.834 1180.56 193.002 1181.23 193.337C1181.9 193.665 1182.42 194.13 1182.77 194.731C1183.13 195.326 1183.32 196.023 1183.32 196.823C1183.32 197.261 1183.24 197.705 1183.09 198.156C1182.95 198.601 1182.75 199.045 1182.49 199.489C1182.23 199.934 1181.94 200.371 1181.59 200.802C1181.26 201.232 1180.9 201.656 1180.52 202.073L1176.52 206.411H1184ZM1192.05 194.362L1187.11 207.969H1185.09L1190.78 193.04H1192.08L1192.05 194.362ZM1196.19 207.969L1191.24 194.362L1191.21 193.04H1192.51L1198.23 207.969H1196.19ZM1195.94 202.442V204.062H1187.55V202.442H1195.94Z" fill="white"/>
</svg>
