<svg width="208" height="199" viewBox="0 0 208 199" fill="none" xmlns="http://www.w3.org/2000/svg">
<rect width="207.094" height="198.411" transform="translate(0.237305 0.375)" fill="black"/>
<path d="M143.764 80.1402L125.691 59.3291L115.833 84.7953L132.811 104.237L108.166 104.511L99.4033 128.06H125.143L143.764 80.1402Z" fill="white"/>
<path d="M63.8052 128.334L103.237 25.9219H128.977L89.2713 128.334H63.8052Z" fill="white"/>
<path d="M51.2832 139.459C55.9712 139.459 59.5638 141.255 62.0611 144.848C64.6023 148.397 65.4785 152.559 64.6899 157.335C63.9451 161.979 61.9078 165.944 58.578 169.23C55.2482 172.516 51.1518 174.159 46.2885 174.159C41.5568 174.159 38.1394 172.363 36.0364 168.77L35.2477 173.239H26.77L34.8534 127.235H43.3312L40.3738 143.928C43.3531 140.949 46.9895 139.459 51.2832 139.459ZM56.2121 156.743C56.6941 153.983 56.234 151.771 54.832 150.106C53.4738 148.397 51.4803 147.543 48.8516 147.543C46.2228 147.543 43.9007 148.397 41.8854 150.106C39.87 151.814 38.6213 154.049 38.1394 156.809C37.6574 159.569 38.1394 161.804 39.5852 163.512C41.031 165.221 43.0683 166.075 45.6971 166.075C48.3258 166.075 50.626 165.221 52.5976 163.512C54.5691 161.76 55.774 159.503 56.2121 156.743ZM91.9618 140.379H100.44L94.6563 173.239H86.1785L86.8357 169.69C84.2507 172.669 80.8552 174.159 76.6492 174.159C72.969 174.159 70.1211 172.932 68.1057 170.479C66.0904 168.025 65.4551 164.717 66.1999 160.555L69.7487 140.379H78.2265L74.8748 159.503C74.4805 161.738 74.7653 163.425 75.7292 164.564C76.7369 165.703 78.2265 166.273 80.1981 166.273C82.2134 166.273 83.966 165.681 85.4556 164.498C86.989 163.315 88.0624 161.541 88.6758 159.175L91.9618 140.379ZM115.436 174.159C110.354 174.159 106.367 172.428 103.475 168.967C100.628 165.462 99.6199 161.19 100.452 156.152C101.197 151.332 103.41 147.345 107.09 144.191C110.814 141.036 115.152 139.459 120.102 139.459C123.476 139.459 126.368 140.248 128.777 141.825C131.187 143.358 132.918 145.418 133.969 148.003L126.28 152.077C125.097 149.229 122.797 147.805 119.379 147.805C116.838 147.805 114.56 148.638 112.545 150.303C110.573 151.924 109.368 154.027 108.93 156.612C108.492 159.241 108.952 161.431 110.31 163.184C111.668 164.892 113.618 165.747 116.159 165.747C119.577 165.747 122.293 164.279 124.308 161.344L131.143 165.747C129.478 168.463 127.244 170.544 124.44 171.99C121.68 173.436 118.678 174.159 115.436 174.159ZM130.895 173.239L134.51 152.603L139.307 125.264H147.785L142.922 152.932L139.373 173.239H130.895ZM178.15 126.973L169.541 135.976H161.195L167.767 126.973H178.15ZM151.863 144.257C155.587 141.058 159.88 139.459 164.744 139.459C169.607 139.459 173.44 141.146 176.244 144.52C179.048 147.849 179.99 151.946 179.07 156.809C178.983 157.773 178.676 158.934 178.15 160.292H153.309C153.484 162.395 154.294 163.95 155.74 164.958C157.186 165.966 159.004 166.47 161.195 166.47C164.481 166.47 167.175 165.352 169.278 163.118L175.259 167.916C171.578 172.078 166.671 174.159 160.538 174.159C155.105 174.159 150.965 172.428 148.117 168.967C145.313 165.506 144.327 161.234 145.159 156.152C145.904 151.376 148.139 147.411 151.863 144.257ZM154.491 153.654H171.184C171.14 151.42 170.461 149.777 169.147 148.726C167.876 147.63 166.233 147.083 164.218 147.083C162.027 147.083 160.078 147.652 158.369 148.791C156.704 149.93 155.412 151.551 154.491 153.654Z" fill="white"/>
</svg>
