<svg width="157" height="50" viewBox="0 0 157 50" fill="none" xmlns="http://www.w3.org/2000/svg">
<path d="M25.6714 15.006C30.3593 15.006 33.952 16.8023 36.4493 20.395C38.9904 23.9438 39.8667 28.106 39.0781 32.8816C38.3333 37.5258 36.296 41.4908 32.9662 44.7768C29.6364 48.0627 25.5399 49.7057 20.6767 49.7057C15.9449 49.7057 12.5276 47.9094 10.4245 44.3167L9.63591 48.7856H1.15815L9.2416 2.78227H17.7194L14.762 19.4749C17.7413 16.4957 21.3777 15.006 25.6714 15.006ZM30.6003 32.2901C31.0822 29.5299 30.6222 27.3174 29.2202 25.6525C27.862 23.9438 25.8685 23.0895 23.2398 23.0895C20.611 23.0895 18.2889 23.9438 16.2735 25.6525C14.2582 27.3612 13.0095 29.5957 12.5276 32.3559C12.0456 35.1161 12.5276 37.3505 13.9734 39.0592C15.4192 40.7679 17.4565 41.6223 20.0853 41.6223C22.714 41.6223 25.0142 40.7679 26.9858 39.0592C28.9573 37.3067 30.1622 35.0504 30.6003 32.2901ZM66.35 15.9261H74.8277L69.0444 48.7856H60.5667L61.2239 45.2368C58.6389 48.2161 55.2434 49.7057 51.0374 49.7057C47.3571 49.7057 44.5093 48.479 42.4939 46.0254C40.4785 43.5719 39.8433 40.2641 40.5881 36.1019L44.1369 15.9261H52.6147L49.263 35.0504C48.8687 37.2848 49.1535 38.9716 50.1173 40.1107C51.125 41.2499 52.6147 41.8194 54.5862 41.8194C56.6016 41.8194 58.3541 41.2279 59.8438 40.045C61.3772 38.8621 62.4506 37.0876 63.064 34.7218L66.35 15.9261ZM89.8245 49.7057C84.7422 49.7057 80.7553 47.9751 77.8636 44.5139C75.0158 41.0089 74.0081 36.7371 74.8406 31.6987C75.5854 26.8793 77.7979 22.8923 81.4782 19.7378C85.2023 16.5833 89.5397 15.006 94.4906 15.006C97.8642 15.006 100.756 15.7947 103.165 17.3719C105.575 18.9054 107.306 20.9646 108.357 23.5495L100.668 27.6241C99.4852 24.7763 97.1851 23.3524 93.7677 23.3524C91.2265 23.3524 88.9483 24.1848 86.9329 25.8497C84.9613 27.4707 83.7565 29.5738 83.3183 32.1587C82.8802 34.7875 83.3402 36.9781 84.6984 38.7306C86.0566 40.4393 88.0063 41.2937 90.5474 41.2937C93.9648 41.2937 96.6812 39.8259 98.6966 36.8905L105.531 41.2937C103.866 44.0101 101.632 46.0912 98.828 47.537C96.0678 48.9828 93.0667 49.7057 89.8245 49.7057ZM105.283 48.7856L108.898 28.1498L113.695 0.8107H122.173L117.31 28.4784L113.761 48.7856H105.283ZM152.539 2.51939L143.929 11.5229H135.583L142.155 2.51939H152.539ZM126.251 19.8035C129.975 16.6052 134.269 15.006 139.132 15.006C143.995 15.006 147.829 16.6928 150.633 20.0664C153.437 23.3962 154.379 27.4927 153.459 32.3559C153.371 33.3197 153.064 34.4808 152.539 35.839H127.697C127.872 37.942 128.682 39.4973 130.128 40.505C131.574 41.5127 133.392 42.0166 135.583 42.0166C138.869 42.0166 141.563 40.8994 143.666 38.6649L149.647 43.4624C145.967 47.6246 141.06 49.7057 134.926 49.7057C129.493 49.7057 125.353 47.9751 122.505 44.5139C119.701 41.0527 118.715 36.781 119.548 31.6987C120.292 26.9231 122.527 22.958 126.251 19.8035ZM128.88 29.2014H145.572C145.528 26.9669 144.849 25.3239 143.535 24.2724C142.264 23.1771 140.621 22.6294 138.606 22.6294C136.415 22.6294 134.466 23.199 132.757 24.3381C131.092 25.4773 129.8 27.0983 128.88 29.2014Z" fill="black"/>
</svg>
