<svg width="157" height="149" viewBox="0 0 157 149" fill="none" xmlns="http://www.w3.org/2000/svg">
<path d="M118.8 54.687L100.727 33.876L90.8692 59.3421L107.847 78.784L83.202 79.0579L74.4395 102.607H100.179L118.8 54.687Z" fill="#5B24B2"/>
<path d="M38.8418 102.881L78.2733 0.46875L104.013 0.46875L64.3079 102.881H38.8418Z" fill="#5B24B2"/>
<path d="M26.3198 114.006C31.0078 114.006 34.6004 115.802 37.0977 119.395C39.6389 122.944 40.5151 127.106 39.7265 131.882C38.9817 136.526 36.9444 140.491 33.6146 143.777C30.2849 147.063 26.1884 148.706 21.3252 148.706C16.5934 148.706 13.176 146.909 11.073 143.317L10.2844 147.786H1.80659L9.89004 101.782H18.3678L15.4104 118.475C18.3897 115.496 22.0262 114.006 26.3198 114.006ZM31.2487 131.29C31.7307 128.53 31.2707 126.317 29.8686 124.653C28.5104 122.944 26.517 122.089 23.8882 122.089C21.2594 122.089 18.9374 122.944 16.922 124.653C14.9066 126.361 13.6579 128.596 13.176 131.356C12.6941 134.116 13.176 136.351 14.6218 138.059C16.0676 139.768 18.1049 140.622 20.7337 140.622C23.3625 140.622 25.6626 139.768 27.6342 138.059C29.6058 136.307 30.8106 134.05 31.2487 131.29ZM66.9984 114.926H75.4762L69.6929 147.786H61.2151L61.8723 144.237C59.2874 147.216 55.8919 148.706 51.6858 148.706C48.0056 148.706 45.1578 147.479 43.1424 145.025C41.127 142.572 40.4917 139.264 41.2365 135.102L44.7853 114.926H53.2631L49.9114 134.05C49.5171 136.285 49.8019 137.972 50.7658 139.111C51.7735 140.25 53.2631 140.819 55.2347 140.819C57.2501 140.819 59.0026 140.228 60.4922 139.045C62.0257 137.862 63.0991 136.088 63.7124 133.722L66.9984 114.926ZM90.473 148.706C85.3907 148.706 81.4037 146.975 78.5121 143.514C75.6642 140.009 74.6566 135.737 75.489 130.699C76.2338 125.879 78.4464 121.892 82.1266 118.738C85.8507 115.583 90.1882 114.006 95.139 114.006C98.5126 114.006 101.404 114.795 103.814 116.372C106.224 117.905 107.954 119.965 109.006 122.55L101.317 126.624C100.134 123.776 97.8335 122.352 94.4161 122.352C91.875 122.352 89.5967 123.185 87.5813 124.85C85.6097 126.471 84.4049 128.574 83.9668 131.159C83.5286 133.787 83.9887 135.978 85.3469 137.731C86.7051 139.439 88.6547 140.294 91.1959 140.294C94.6133 140.294 97.3296 138.826 99.345 135.89L106.18 140.294C104.515 143.01 102.28 145.091 99.4765 146.537C96.7163 147.983 93.7151 148.706 90.473 148.706ZM105.932 147.786L109.546 127.15L114.344 99.8107H122.822L117.958 127.478L114.41 147.786H105.932ZM153.187 101.519L144.578 110.523H136.231L142.803 101.519H153.187ZM126.899 118.804C130.623 115.605 134.917 114.006 139.78 114.006C144.643 114.006 148.477 115.693 151.281 119.066C154.085 122.396 155.027 126.493 154.107 131.356C154.019 132.32 153.713 133.481 153.187 134.839H128.345C128.52 136.942 129.331 138.497 130.777 139.505C132.223 140.513 134.041 141.017 136.231 141.017C139.517 141.017 142.212 139.899 144.315 137.665L150.295 142.462C146.615 146.625 141.708 148.706 135.574 148.706C130.141 148.706 126.001 146.975 123.153 143.514C120.349 140.053 119.364 135.781 120.196 130.699C120.941 125.923 123.175 121.958 126.899 118.804ZM129.528 128.201H146.221C146.177 125.967 145.498 124.324 144.183 123.272C142.913 122.177 141.27 121.629 139.254 121.629C137.064 121.629 135.114 122.199 133.405 123.338C131.741 124.477 130.448 126.098 129.528 128.201Z" fill="#5B24B2"/>
</svg>
